<svg xmlns="http://www.w3.org/2000/svg" viewBox="0 0 24 24" fill="none" aria-hidden="true">
  <path d="M5 8.6c0-2.7 2.3-4.8 5.3-4.8 2.9 0 5.2 2.1 5.2 4.8 0 2.6-2.3 4.7-5.2 4.7H9l-4 3.1V8.6Z" fill="#ffe5f3" stroke="#bf1f72" stroke-width="1.7" stroke-linejoin="round"></path>
  <path d="M15.7 10.6h.7c1.6 0 2.9 1.2 2.9 2.7v5.1l-2.7-2.1h-4.2c-1.2 0-2.3-.7-2.7-1.7" stroke="#bf1f72" stroke-width="1.5" stroke-linecap="round" stroke-linejoin="round"></path>
  <path d="M10.2 9.2c0-.9 1.4-.9 1.4-1.9 0-.8-.6-1.3-1.5-1.3-.7 0-1.3.3-1.7.8M10.7 11.2h.1" stroke="#bf1f72" stroke-width="1.8" stroke-linecap="round"></path>
</svg>