<svg xmlns="http://www.w3.org/2000/svg" viewBox="0 0 24 24" fill="none" aria-hidden="true">
  <path d="M7.8 12.1l2.8-2.8c.8-.8 2-.8 2.8 0l3 3" fill="#ffe5f3"/>
  <path d="M3.8 11.8l3-3 4.2 4.2M20.2 11.8l-3-3-4.2 4.2" stroke="#bf1f72" stroke-width="1.7" stroke-linecap="round" stroke-linejoin="round"/>
  <path d="M7.7 12l3.7 3.7c.8.8 2 .8 2.8 0l2.1-2.1M9.9 14.2l-1.2 1.2c-.6.6-1.6.6-2.2 0l-2.7-2.7M14.1 14.2l1.2 1.2c.6.6 1.6.6 2.2 0l2.7-2.7" stroke="#bf1f72" stroke-width="1.7" stroke-linecap="round" stroke-linejoin="round"/>
</svg>
