<svg width="418" height="248" viewBox="-360 -185 860 590" fill="none" xmlns="http://www.w3.org/2000/svg">
<path d="M-226.489 327.317L-213.309 318.247L-213.326 318.221L-213.344 318.194L-226.489 327.317ZM-110.363 260.168L-126.327 259.092L-126.329 259.114L-126.33 259.136L-110.363 260.168ZM5.76248 193.018L-7.45377 202.036L-7.38549 202.135L-7.3162 202.234L5.76248 193.018ZM121.889 125.868L137.427 129.684L137.442 129.623L137.457 129.561L121.889 125.868ZM238.015 58.7182L251.188 49.6376L251.073 49.4701L250.953 49.3068L238.015 58.7182ZM354.141 -8.4314L338.183 -7.2674L338.195 -7.09982L338.212 -6.93365L354.141 -8.4314ZM456.866 -66.8376C461.695 -59.4374 471.609 -57.3525 479.01 -62.1807C486.41 -67.0088 488.495 -76.9224 483.667 -84.3233L456.866 -66.8376ZM-326.721 396.303C-322.911 363.332 -317.76 338.105 -311.53 320.128C-305.069 301.48 -298.46 293.623 -293.962 291.023C-291.406 289.544 -287.028 288.271 -277.439 294.642C-267.386 301.32 -254.736 314.679 -239.634 336.439L-213.344 318.194C-229.21 295.333 -244.624 278.024 -259.732 267.987C-275.304 257.642 -293.184 253.608 -309.981 263.32C-324.839 271.912 -334.681 289.2 -341.766 309.651C-349.085 330.772 -354.577 358.596 -358.51 392.63L-326.721 396.303ZM-239.669 336.387C-222.308 361.617 -205.858 380.605 -190.233 391.811C-174.524 403.077 -155.898 408.778 -138.351 398.632C-122.969 389.737 -113.681 371.16 -107.474 349.674C-101.012 327.303 -96.7505 297.641 -94.3964 261.199L-126.33 259.136C-128.619 294.577 -132.681 321.626 -138.217 340.794C-144.01 360.845 -150.399 368.633 -154.37 370.93C-156.178 371.975 -160.585 373.695 -171.585 365.807C-182.669 357.858 -196.605 342.518 -213.309 318.247L-239.669 336.387ZM-94.3993 261.243C-92.0073 225.739 -87.8726 198.641 -82.2852 179.436C-76.4392 159.344 -70.0285 151.529 -66.0465 149.226C-64.2578 148.192 -59.8928 146.462 -48.9528 154.363C-37.9206 162.331 -24.056 177.704 -7.45377 202.036L18.9795 183.999C1.72353 158.711 -14.644 139.668 -30.2179 128.421C-45.8841 117.107 -64.4985 111.366 -82.0646 121.524C-97.4374 130.413 -106.754 148.991 -113.011 170.497C-119.526 192.89 -123.868 222.592 -126.327 259.092L-94.3993 261.243ZM-7.3162 202.234C5.54415 220.484 18.9207 234.544 33.1224 242.216C48.321 250.425 64.6161 251.253 79.7451 242.504C93.51 234.544 104.291 219.775 113.169 201.58C122.22 183.031 130.245 158.924 137.427 129.684L106.351 122.052C99.4509 150.144 92.0767 171.834 84.41 187.547C76.5703 203.614 69.3147 211.571 63.7262 214.802C59.5006 217.246 55.123 217.73 48.3308 214.06C40.5419 209.853 30.6086 200.5 18.8419 183.801L-7.3162 202.234ZM137.457 129.561C144.079 101.641 151.248 80.092 158.771 64.4848C166.461 48.5337 173.644 40.6393 179.212 37.4192C183.464 34.9608 187.977 34.4422 194.972 38.1221C202.92 42.3037 213.046 51.5925 225.076 68.1304L250.953 49.3068C237.797 31.2198 224.194 17.3375 209.871 9.80212C194.595 1.76559 178.296 0.984466 163.194 9.71736C149.407 17.6893 138.694 32.4406 129.946 50.5893C121.031 69.0821 113.22 93.0875 106.321 122.176L137.457 129.561ZM224.841 67.7998C248.686 102.389 269.757 128.061 287.995 143.766C297.085 151.593 306.375 157.745 315.756 160.861C325.551 164.113 336.216 164.232 345.94 158.609C355.107 153.309 360.908 144.332 364.698 134.802C368.537 125.147 370.978 113.284 372.41 99.7514C375.278 72.6489 374.38 35.916 370.071 -9.92849L338.212 -6.93365C342.45 38.1564 343.123 72.4224 340.588 96.3844C339.318 108.383 337.313 117.067 334.964 122.976C332.564 129.01 330.431 130.612 329.922 130.908C329.738 131.014 329.56 131.088 329.163 131.11C328.682 131.135 327.626 131.084 325.842 130.492C322.058 129.235 316.439 126.031 308.877 119.518C293.809 106.543 274.6 83.5997 251.188 49.6376L224.841 67.7998ZM370.098 -9.59472C366.77 -55.2214 366.757 -89.912 369.73 -114.179C371.219 -126.33 373.378 -135.158 375.843 -141.188C378.37 -147.367 380.57 -149.047 381.116 -149.363C381.298 -149.468 381.435 -149.521 381.746 -149.536C382.143 -149.555 383.11 -149.512 384.803 -148.922C388.417 -147.664 393.854 -144.441 401.196 -137.818C415.816 -124.632 434.362 -101.331 456.866 -66.8376L483.667 -84.3233C460.753 -119.444 440.395 -145.556 422.628 -161.581C413.777 -169.563 404.65 -175.896 395.328 -179.142C385.543 -182.55 374.86 -182.71 365.097 -177.065C355.965 -171.785 350.117 -162.819 346.224 -153.301C342.271 -143.634 339.64 -131.716 337.968 -118.07C334.62 -90.743 334.801 -53.6381 338.183 -7.2674L370.098 -9.59472Z" fill="url(#paint0_linear_2811_3)"></path>
<defs>
<linearGradient id="paint0_linear_2811_3" x1="-372.795" y1="424.688" x2="658.183" y2="-171.474" gradientUnits="userSpaceOnUse">
<stop offset="0.24" stop-color="#FFB2E1"></stop>
<stop offset="1" stop-color="#FFD1ED"></stop>
</linearGradient>
</defs>
</svg>