<?xml version="1.0"?><svg xmlns="http://www.w3.org/2000/svg" xmlns:xlink="http://www.w3.org/1999/xlink" width="756" height="759" viewBox="0 0 756 759"><clipPath id="cl_3"><rect x="-0.00028991699" y="0.00011444092" width="755.99994" height="759"></rect></clipPath><g clip-path="url(#cl_3)"><path fill="#FEFEFE" transform="matrix(0.935643 0 0 0.935882 -127.248 -127.28)" d="M521.126 141.991C740.959 131.567 927.609 301.347 937.996 521.182C948.382 741.016 778.57 927.638 558.734 937.987C338.95 948.333 152.383 778.571 142 558.789C131.616 339.007 301.346 152.412 521.126 141.991Z"></path><path fill="#0D283A" transform="matrix(0.935643 0 0 0.935882 -127.248 -127.28)" d="M534.538 146.847C544.273 146.482 559.512 147.227 569.183 147.946C620.775 151.614 671.109 165.584 717.212 189.031C811.002 236.385 881.962 319.278 914.286 419.248C946.37 518.902 937.444 627.231 889.482 720.29L392.441 720.286L392.446 736.224L880.756 736.26C875.205 745.818 869.802 754.139 863.72 763.324C852.688 779.238 840.494 794.314 827.24 808.43C751.033 888.847 654.834 930.322 544.47 933.134C524.448 933.508 504.43 932.195 484.628 929.21C403.09 917.743 327.252 880.833 267.92 823.74C190.632 750.167 149.421 652.127 146.907 545.945C145.135 442.063 184.721 341.735 256.949 267.05C308.251 213.997 373.327 176.298 444.87 158.185C476.319 150.477 502.432 147.615 534.538 146.847Z"></path><path fill="#FEFEFE" transform="matrix(0.935643 0 0 0.935882 -127.248 -127.28)" d="M511.277 218.421L537.9 218.461L537.886 501.303L512.764 501.299L512.734 402.442C512.705 373.248 512.33 343.309 513.218 314.218C513.614 299.686 515.176 283.211 515.141 269.191C512.703 273.292 509.587 282.353 507.71 287.19L495.941 317.077L449.903 434.535L424.824 434.529C418.85 420.089 413.06 404.509 407.346 389.895L374.895 307.476C371.284 298.381 367.547 289.351 364.281 280.126C363.549 278.058 362.118 272.953 360.276 272.037C358.976 273.899 359.965 281.47 360.071 284.179C362.908 356.266 361.806 429.143 361.787 501.296L336.755 501.264L336.756 218.459L363.49 218.44C380.832 260.717 398.556 302.889 415.798 345.21C423.728 364.675 429.642 385.73 437.202 405.031C439.441 400.156 442.53 390.349 444.418 384.959C448.973 371.744 453.752 358.607 458.754 345.554C475.185 303.73 494.014 260.177 511.277 218.421Z"></path><path fill="#FEFEFE" transform="matrix(0.935643 0 0 0.935882 -127.248 -127.28)" d="M288.462 505.533L289.363 505.511C302.702 505.288 316.258 505.566 329.659 505.442C356.072 504.843 385.258 504.422 405.511 524.62C434.585 553.615 434.209 620.919 405.475 650.038C384.903 670.887 354.682 669.312 327.744 669.248L311.783 669.244L311.767 768.793L288.468 768.803L288.462 505.533Z"></path><path fill="#0D283A" transform="matrix(0.935643 0 0 0.935882 -127.248 -127.28)" d="M311.796 527.797L337.897 527.766C353.986 527.763 373.022 526.963 386.303 538.087C407.576 555.906 406.674 596.905 397.792 620.757C396.136 625.203 392.777 629.794 389.844 633.394C375.829 647.633 357.089 647.041 338.585 647.037L311.755 647.003L311.796 527.797Z"></path><path fill="#FEFEFE" transform="matrix(0.935643 0 0 0.935882 -127.248 -127.28)" d="M581.737 453.557C584.695 453.468 588.072 453.276 590.997 453.381C606.669 485.333 622.334 519.263 637.373 551.602C637.731 552.446 638.466 554.035 638.681 554.849L639.835 556.66L641.199 559.771L642.132 561.567L644.047 565.886L644.782 567.167C645.397 568.478 646.349 570.3 646.687 571.63L647.885 573.708C648.449 574.894 649.048 576.232 649.646 577.384L650.538 579.558L652.626 583.73C667.84 617.211 685.117 650.985 699.902 684.414C695.825 684.63 693.493 684.685 689.435 684.432L649.44 599.588C647.99 602.414 647.623 606.339 646.761 609.593C643.405 622.261 641.487 642.246 627.734 647.953C621.323 650.614 613.058 648.286 608.322 643.441C595.131 631.274 594.358 589.912 592.949 571.958C588.524 572.191 583.201 572.035 578.707 572.016L576.091 572.093L574.088 571.792C572.128 582.52 569.176 606.078 557.355 610.123C554.178 611.202 550.694 610.909 547.741 609.314C535.7 602.923 533.862 583.531 530.034 572.014L526.27 572.027L523.216 572.171L521.206 571.861L518.285 572.154L516.415 571.819L513.227 572.162L511.277 571.9L508.521 572.098L506.072 571.989L503 572.109C487.293 571.888 471.16 572.472 455.478 571.754C453.8 571.677 454.282 571.912 453.383 570.838C453.29 569.199 453.205 569.17 453.642 567.62C456.365 565.627 468.35 566.388 472.247 566.386L505.983 566.426C512.322 551.599 518.983 534.544 538.867 544.294L581.737 453.557Z"></path><path fill="#0D283A" transform="matrix(0.935643 0 0 0.935882 -127.248 -127.28)" d="M611.415 572.071L613.951 571.675L615.93 572.04L618.49 572.027L629.558 572.021L632.045 572.112L634.281 571.66C635.534 572.036 636.116 571.95 636.748 572.781L638.06 575.772L639.963 579.503L641.257 582.361L643.163 586.216L644.313 588.951L646.369 593.047L647.455 595.71L649.44 599.588C647.99 602.414 647.623 606.339 646.761 609.593C643.405 622.261 641.487 642.246 627.734 647.953C621.323 650.614 613.058 648.286 608.322 643.441C595.131 631.274 594.358 589.912 592.949 571.958L595.312 571.878L597.441 571.988L600.051 571.792L602.085 572.092L604.793 571.802L606.848 572.093L609.14 571.735L611.415 572.071Z"></path><path fill="#0D283A" transform="matrix(0.935643 0 0 0.935882 -127.248 -127.28)" d="M592.949 571.958L595.312 571.878L597.441 571.988L600.051 571.792C600.652 585.462 602.868 614.907 606.886 626.796C613.02 642.062 624.191 650.875 633.393 630.896C638.927 618.881 641.511 602.153 644.313 588.951L646.369 593.047L647.455 595.71L649.44 599.588C647.99 602.414 647.623 606.339 646.761 609.593C643.405 622.261 641.487 642.246 627.734 647.953C621.323 650.614 613.058 648.286 608.322 643.441C595.131 631.274 594.358 589.912 592.949 571.958Z"></path><path fill="#9734AB" transform="matrix(0.935643 0 0 0.935882 -127.248 -127.28)" d="M644.313 588.951L646.369 593.047C644.524 595.932 644.306 599.687 643.428 603.293C640.674 614.596 635.277 652.17 616.39 643.231C611.339 640.84 606.717 634.378 605.064 628.714L606.886 626.796C613.02 642.062 624.191 650.875 633.393 630.896C638.927 618.881 641.511 602.153 644.313 588.951Z"></path><defs><linearGradient id="gradient_0" gradientUnits="userSpaceOnUse" x1="646.94214" y1="623.68225" x2="609.12592" y2="622.61389"><stop offset="0" stop-color="#7B379B"></stop><stop offset="1" stop-color="#C92AC1"></stop></linearGradient></defs><path fill="url(#gradient_0)" transform="matrix(0.935643 0 0 0.935882 -127.248 -127.28)" d="M647.455 595.71L649.44 599.588C647.99 602.414 647.623 606.339 646.761 609.593C643.405 622.261 641.487 642.246 627.734 647.953C621.323 650.614 613.058 648.286 608.322 643.441L609.982 641.887C612.209 643.772 615.704 645.891 618.543 646.402C639.755 650.217 644.455 610.025 647.455 595.71Z"></path><path fill="#F020D5" transform="matrix(0.935643 0 0 0.935882 -127.248 -127.28)" d="M592.949 571.958L595.312 571.878C596.853 592.033 597.036 626.857 609.982 641.887L608.322 643.441C595.131 631.274 594.358 589.912 592.949 571.958Z"></path><path fill="#F020D5" transform="matrix(0.935643 0 0 0.935882 -127.248 -127.28)" d="M597.441 571.988L600.051 571.792C600.652 585.462 602.868 614.907 606.886 626.796L605.064 628.714C599.423 611.644 599.418 590.093 597.441 571.988Z"></path><path fill="#0D283A" transform="matrix(0.935643 0 0 0.935882 -127.248 -127.28)" d="M629.558 572.021L632.045 572.112L634.281 571.66C633.059 577.814 625.275 616.443 621.277 617.311C615.581 614.696 614.016 579.052 613.951 571.675L615.93 572.04L618.49 572.027L629.558 572.021Z"></path><path fill="#0D283A" transform="matrix(0.935643 0 0 0.935882 -127.248 -127.28)" d="M618.49 572.027L629.558 572.021C628.395 576.674 622.548 603.097 621.467 604.881L620.644 601.51C620.918 596.942 618.767 578.263 618.49 572.027Z"></path><path fill="#9734AB" transform="matrix(0.935643 0 0 0.935882 -127.248 -127.28)" d="M629.558 572.021L632.045 572.112C629.705 579.789 624.298 607.987 621.835 611.39L620.895 611.651C619.455 610.1 619.882 610.352 619.349 607.954C621.061 605.968 620.615 604.336 620.644 601.51L621.467 604.881C622.548 603.097 628.395 576.674 629.558 572.021Z"></path><path fill="#A953D7" transform="matrix(0.935643 0 0 0.935882 -127.248 -127.28)" d="M615.93 572.04L618.49 572.027C618.767 578.263 620.918 596.942 620.644 601.51C620.615 604.336 621.061 605.968 619.349 607.954C617.636 596.139 617.315 583.903 615.93 572.04Z"></path><path fill="#0D283A" transform="matrix(0.935643 0 0 0.935882 -127.248 -127.28)" d="M611.415 572.071L613.951 571.675C614.016 579.052 615.581 614.696 621.277 617.311C625.275 616.443 633.059 577.814 634.281 571.66C635.534 572.036 636.116 571.95 636.748 572.781L638.06 575.772C635.636 585.049 628.935 620.292 625.234 625.294C611.741 643.532 609.431 575.633 609.14 571.735L611.415 572.071Z"></path><defs><linearGradient id="gradient_1" gradientUnits="userSpaceOnUse" x1="634.49127" y1="597.55304" x2="611.78369" y2="597.12317"><stop offset="0" stop-color="#9435A8"></stop><stop offset="1" stop-color="#C42CC0"></stop></linearGradient></defs><path fill="url(#gradient_1)" transform="matrix(0.935643 0 0 0.935882 -127.248 -127.28)" d="M611.415 572.071L613.951 571.675C614.016 579.052 615.581 614.696 621.277 617.311C625.275 616.443 633.059 577.814 634.281 571.66C635.534 572.036 636.116 571.95 636.748 572.781C632.075 581.142 629.428 619.656 621.268 622.695C620.328 622.522 619.93 622.578 619.172 621.941C613.16 616.89 612.081 580.408 611.415 572.071Z"></path><defs><linearGradient id="gradient_2" gradientUnits="userSpaceOnUse" x1="637.74121" y1="602.86951" x2="607.02917" y2="602.38239"><stop offset="0" stop-color="#8E36A4"></stop><stop offset="1" stop-color="#CD2AC5"></stop></linearGradient></defs><path fill="url(#gradient_2)" transform="matrix(0.935643 0 0 0.935882 -127.248 -127.28)" d="M606.848 572.093L609.14 571.735C609.431 575.633 611.741 643.532 625.234 625.294C628.935 620.292 635.636 585.049 638.06 575.772L639.963 579.503C637.355 583.369 629.379 644.916 617.806 632.2C608.731 622.229 607.954 587.35 606.848 572.093Z"></path><path fill="#0D283A" transform="matrix(0.935643 0 0 0.935882 -127.248 -127.28)" d="M604.793 571.802L606.848 572.093C607.954 587.35 608.731 622.229 617.806 632.2C629.379 644.916 637.355 583.369 639.963 579.503L641.257 582.361C639.239 590.643 626.764 671.237 610.3 622.106C607.029 612.346 605.122 583.185 604.793 571.802Z"></path><path fill="#A953D7" transform="matrix(0.935643 0 0 0.935882 -127.248 -127.28)" d="M602.085 572.092L604.793 571.802C605.122 583.185 607.029 612.346 610.3 622.106C626.764 671.237 639.239 590.643 641.257 582.361L643.163 586.216C637.793 594.177 635.152 651.051 616.2 637.748C604.384 629.455 603.178 585.832 602.085 572.092Z"></path><defs><linearGradient id="gradient_3" gradientUnits="userSpaceOnUse" x1="532.62231" y1="592.09454" x2="573.69781" y2="589.57666"><stop offset="0" stop-color="#703C99"></stop><stop offset="1" stop-color="#C42EC3"></stop></linearGradient></defs><path fill="url(#gradient_3)" transform="matrix(0.935643 0 0 0.935882 -127.248 -127.28)" d="M566.881 571.783L569.244 572.13L571.654 571.84L574.088 571.792C572.128 582.52 569.176 606.078 557.355 610.123C554.178 611.202 550.694 610.909 547.741 609.314C535.7 602.923 533.862 583.531 530.034 572.014L532.833 571.798L535.102 572.078L537.484 571.851L539.766 572.014L542.271 571.904L544.498 572.036L547.033 571.802L549.299 572.126C551.19 572.098 553.279 572.016 555.141 572.154L557.449 571.795L559.98 572.101L562.131 571.711L564.701 572.073L566.881 571.783Z"></path><defs><linearGradient id="gradient_4" gradientUnits="userSpaceOnUse" x1="541.95148" y1="586.08881" x2="564.1275" y2="584.32635"><stop offset="0" stop-color="#833AA3"></stop><stop offset="1" stop-color="#B035B9"></stop></linearGradient></defs><path fill="url(#gradient_4)" transform="matrix(0.935643 0 0 0.935882 -127.248 -127.28)" d="M562.131 571.711L564.701 572.073C563.842 576.481 560.042 604.993 551.377 599.847C544.718 595.892 541.555 579.42 539.766 572.014L542.271 571.904L544.498 572.036L547.033 571.802L549.299 572.126C551.19 572.098 553.279 572.016 555.141 572.154L557.449 571.795L559.98 572.101L562.131 571.711Z"></path><path fill="#9734AB" transform="matrix(0.935643 0 0 0.935882 -127.248 -127.28)" d="M544.498 572.036L547.033 571.802L549.299 572.126C551.19 572.098 553.279 572.016 555.141 572.154L557.449 571.795L559.98 572.101C559.174 576.502 557.792 590.145 551.774 589.307C547.343 586.208 545.895 577.357 544.498 572.036Z"></path><path fill="#0D283A" transform="matrix(0.935643 0 0 0.935882 -127.248 -127.28)" d="M549.299 572.126C551.19 572.098 553.279 572.016 555.141 572.154L557.449 571.795C557.247 573.263 557.032 574.729 556.804 576.193C556.296 579.446 556.159 581.838 553.408 583.842C548.362 584.02 547.739 575.655 547.033 571.802L549.299 572.126Z"></path><path fill="#9734AB" transform="matrix(0.935643 0 0 0.935882 -127.248 -127.28)" d="M549.299 572.126C551.19 572.098 553.279 572.016 555.141 572.154C554.767 574.741 554.676 577.364 552.828 579.17L551.771 578.975C550.243 577.119 549.898 574.55 549.299 572.126Z"></path><path fill="#0D283A" transform="matrix(0.935643 0 0 0.935882 -127.248 -127.28)" d="M559.98 572.101L562.131 571.711C561.91 574.836 559.668 587.413 558.255 589.92C548.887 606.54 543.266 576.385 542.271 571.904L544.498 572.036C545.895 577.357 547.343 586.208 551.774 589.307C557.792 590.145 559.174 576.502 559.98 572.101Z"></path><path fill="#9734AB" transform="matrix(0.935643 0 0 0.935882 -127.248 -127.28)" d="M566.881 571.783L569.244 572.13C568.137 578.952 563.762 613.004 549.378 604.811C540.987 600.032 537.348 581.385 535.102 572.078L537.484 571.851L539.766 572.014C541.555 579.42 544.718 595.892 551.377 599.847C560.042 604.993 563.842 576.481 564.701 572.073L566.881 571.783Z"></path><path fill="#0D283A" transform="matrix(0.935643 0 0 0.935882 -127.248 -127.28)" d="M537.484 571.851L539.766 572.014C541.555 579.42 544.718 595.892 551.377 599.847C560.042 604.993 563.842 576.481 564.701 572.073L566.881 571.783C566.205 577.543 562.819 594.79 559.969 598.677C546.237 617.403 538.776 577.806 537.484 571.851Z"></path><path fill="#0D283A" transform="matrix(0.935643 0 0 0.935882 -127.248 -127.28)" d="M532.833 571.798L535.102 572.078C537.348 581.385 540.987 600.032 549.378 604.811C563.762 613.004 568.137 578.952 569.244 572.13L571.654 571.84C570.245 579.997 565.083 617.511 547.754 606.752C539.117 601.389 534.752 581.853 532.833 571.798Z"></path><path fill="#563884" transform="matrix(0.935643 0 0 0.935882 -127.248 -127.28)" d="M505.983 566.426C512.322 551.599 518.983 534.544 538.867 544.294L537.677 547.158L536.734 548.792L535.605 551.785L534.547 553.25L533.773 555.677L532.528 557.739L530.468 562.147C529.664 563.949 529.341 565.388 527.667 566.255C525.882 566.44 525.113 566.448 523.305 566.423L520.845 566.405L518.841 566.665L515.883 566.375L513.64 566.596L510.982 566.389L508.823 566.671C508.225 566.554 506.669 566.479 505.983 566.426Z"></path><path fill="#563884" transform="matrix(0.935643 0 0 0.935882 -127.248 -127.28)" d="M515.883 566.375C519.344 558.745 524.671 545.596 534.547 553.25L533.773 555.677L532.528 557.739L530.468 562.147C529.664 563.949 529.341 565.388 527.667 566.255C525.882 566.44 525.113 566.448 523.305 566.423L520.845 566.405L518.841 566.665L515.883 566.375Z"></path><path fill="#563884" transform="matrix(0.935643 0 0 0.935882 -127.248 -127.28)" d="M520.845 566.405C523.483 560.837 525.283 554.248 532.528 557.739L530.468 562.147C529.664 563.949 529.341 565.388 527.667 566.255C525.882 566.44 525.113 566.448 523.305 566.423L520.845 566.405Z"></path><path fill="#0D283A" transform="matrix(0.935643 0 0 0.935882 -127.248 -127.28)" d="M523.305 566.423C525.344 563.05 526.261 560.378 530.468 562.147C529.664 563.949 529.341 565.388 527.667 566.255C525.882 566.44 525.113 566.448 523.305 566.423Z"></path><path fill="#0D283A" transform="matrix(0.935643 0 0 0.935882 -127.248 -127.28)" d="M518.841 566.665C519.635 560.533 526.265 548.21 533.773 555.677L532.528 557.739C525.283 554.248 523.483 560.837 520.845 566.405L518.841 566.665Z"></path><path fill="#563884" transform="matrix(0.935643 0 0 0.935882 -127.248 -127.28)" d="M510.982 566.389C515.536 555.136 522.36 540.476 536.734 548.792L535.605 551.785L534.547 553.25C524.671 545.596 519.344 558.745 515.883 566.375L513.64 566.596L510.982 566.389Z"></path><path fill="#0D283A" transform="matrix(0.935643 0 0 0.935882 -127.248 -127.28)" d="M513.64 566.596C515.932 558.096 525.804 541.34 535.605 551.785L534.547 553.25C524.671 545.596 519.344 558.745 515.883 566.375L513.64 566.596Z"></path><path fill="#0D283A" transform="matrix(0.935643 0 0 0.935882 -127.248 -127.28)" d="M508.823 566.671C510.056 555.152 524.655 536 537.677 547.158L536.734 548.792C522.36 540.476 515.536 555.136 510.982 566.389L508.823 566.671Z"></path><path fill="#0D283A" transform="matrix(0.935643 0 0 0.935882 -127.248 -127.28)" d="M586.428 466.226C596.671 487.589 606.803 509.006 616.823 530.475C620.213 537.63 631.258 559.828 633.144 566.051C628.289 566.595 622.69 566.45 617.75 566.456L615.537 566.48L613.117 566.437L610.824 566.578L608.653 566.394L606.103 566.633L603.947 566.391L601.657 566.648L599.234 566.388L596.921 566.611L594.739 566.444L592.35 566.424C588.192 566.381 583.956 566.434 579.791 566.443L577.264 566.396L575.011 566.593L572.729 566.438L570.299 566.539L567.965 566.433L565.774 566.642L563.251 566.398L560.942 566.63L558.782 566.37L556.235 566.646L554.071 566.423L550.239 566.448L547.823 566.431C544.894 566.154 542.258 566.351 539.326 566.474C540.319 563.722 542.78 558.734 544.06 555.792L545.585 552.735L572.834 494.964C577.196 485.723 581.845 475.269 586.428 466.226Z"></path><path fill="#0D283A" transform="matrix(0.935643 0 0 0.935882 -127.248 -127.28)" d="M565.774 566.642C566.86 556.373 572.287 533.182 580.892 527.454C602.066 513.358 605.498 556.046 606.103 566.633L603.947 566.391L601.657 566.648L599.234 566.388L596.921 566.611L594.739 566.444L592.35 566.424C588.192 566.381 583.956 566.434 579.791 566.443L577.264 566.396L575.011 566.593L572.729 566.438L570.299 566.539L567.965 566.433L565.774 566.642Z"></path><path fill="#0D283A" transform="matrix(0.935643 0 0 0.935882 -127.248 -127.28)" d="M575.011 566.593C575.563 563.712 581.718 525.687 591.415 538.233C594.122 541.734 596.662 560.642 596.921 566.611L594.739 566.444L592.35 566.424C588.192 566.381 583.956 566.434 579.791 566.443L577.264 566.396L575.011 566.593Z"></path><path fill="#0D283A" transform="matrix(0.935643 0 0 0.935882 -127.248 -127.28)" d="M579.791 566.443C581.727 556.662 583.053 549.453 587.496 540.418C590.556 548.827 591.431 557.555 592.35 566.424C588.192 566.381 583.956 566.434 579.791 566.443Z"></path><path fill="#F020D5" transform="matrix(0.935643 0 0 0.935882 -127.248 -127.28)" d="M577.264 566.396C578.313 561.674 582.626 537.3 588.492 538.713C592.566 542.774 594.017 560.052 594.739 566.444L592.35 566.424C591.431 557.555 590.556 548.827 587.496 540.418C583.053 549.453 581.727 556.662 579.791 566.443L577.264 566.396Z"></path><path fill="#0D283A" transform="matrix(0.935643 0 0 0.935882 -127.248 -127.28)" d="M570.299 566.539C572.132 557.311 573.806 549.136 577.048 540.851C580.416 532.246 589.092 524.573 595.022 534.787C599.138 541.878 600.87 558.576 601.657 566.648L599.234 566.388L596.921 566.611C596.662 560.642 594.122 541.734 591.415 538.233C581.718 525.687 575.563 563.712 575.011 566.593L572.729 566.438L570.299 566.539Z"></path><path fill="#F020D5" transform="matrix(0.935643 0 0 0.935882 -127.248 -127.28)" d="M572.729 566.438C574.503 557.694 577.873 538.38 584.818 533.631C596.576 525.591 598.796 561.475 599.234 566.388L596.921 566.611C596.662 560.642 594.122 541.734 591.415 538.233C581.718 525.687 575.563 563.712 575.011 566.593L572.729 566.438Z"></path><path fill="#F020D5" transform="matrix(0.935643 0 0 0.935882 -127.248 -127.28)" d="M567.965 566.433C570.173 556.348 573.74 534.485 582.883 528.885C600.446 518.127 602.933 556.268 603.947 566.391L601.657 566.648C600.87 558.576 599.138 541.878 595.022 534.787C589.092 524.573 580.416 532.246 577.048 540.851C573.806 549.136 572.132 557.311 570.299 566.539L567.965 566.433Z"></path><path fill="#0D283A" transform="matrix(0.935643 0 0 0.935882 -127.248 -127.28)" d="M556.235 566.646C558.929 551.573 562.641 529.731 575.47 519.952C585.01 512.679 599.299 514.554 605.552 525.17C612.329 536.674 614.546 553.305 615.537 566.48L613.117 566.437L610.824 566.578L608.653 566.394L606.103 566.633C605.498 556.046 602.066 513.358 580.892 527.454C572.287 533.182 566.86 556.373 565.774 566.642L563.251 566.398L560.942 566.63L558.782 566.37L556.235 566.646Z"></path><path fill="#0D283A" transform="matrix(0.935643 0 0 0.935882 -127.248 -127.28)" d="M560.942 566.63C562.812 554.368 567.889 530.007 578.689 523.386C604.777 507.394 610.184 551.201 610.824 566.578L608.653 566.394L606.103 566.633C605.498 556.046 602.066 513.358 580.892 527.454C572.287 533.182 566.86 556.373 565.774 566.642L563.251 566.398L560.942 566.63Z"></path><path fill="#A953D7" transform="matrix(0.935643 0 0 0.935882 -127.248 -127.28)" d="M563.251 566.398C566.076 554.557 569.409 530.67 581.057 524.565C604.585 512.233 606.932 552.527 608.653 566.394L606.103 566.633C605.498 556.046 602.066 513.358 580.892 527.454C572.287 533.182 566.86 556.373 565.774 566.642L563.251 566.398Z"></path><path fill="#A953D7" transform="matrix(0.935643 0 0 0.935882 -127.248 -127.28)" d="M558.782 566.37C561.902 548.793 567.757 514.657 591.922 517.928C609.259 520.276 612.123 553.213 613.117 566.437L610.824 566.578C610.184 551.201 604.777 507.394 578.689 523.386C567.889 530.007 562.812 554.368 560.942 566.63L558.782 566.37Z"></path><path fill="#A953D7" transform="matrix(0.935643 0 0 0.935882 -127.248 -127.28)" d="M554.071 566.423C557.378 546.564 564.589 509.341 592.195 513.367C613.098 516.416 616.859 549.648 617.75 566.456L615.537 566.48C614.546 553.305 612.329 536.674 605.552 525.17C599.299 514.554 585.01 512.679 575.47 519.952C562.641 529.731 558.929 551.573 556.235 566.646L554.071 566.423Z"></path><path fill="#0D283A" transform="matrix(0.935643 0 0 0.935882 -127.248 -127.28)" d="M544.06 555.792C545.983 558.789 546.995 562.959 547.823 566.431C544.894 566.154 542.258 566.351 539.326 566.474C540.319 563.722 542.78 558.734 544.06 555.792Z"></path><path fill="#9734AB" transform="matrix(0.935643 0 0 0.935882 -127.248 -127.28)" d="M545.585 552.735C547.58 557.322 549.193 561.521 550.239 566.448L547.823 566.431C546.995 562.959 545.983 558.789 544.06 555.792L545.585 552.735Z"></path><path fill="#8171DF" transform="matrix(0.935643 0 0 0.935882 -127.248 -127.28)" d="M257.031 345.501C265.175 344.913 271.846 346.952 275.577 354.816C276.815 357.425 276.764 361.646 276.779 364.595C276.887 385.98 276.835 407.369 276.837 428.754L276.848 552.551L276.848 646.101C276.847 661.533 277.325 679.763 276.757 695.026C276.698 697.043 276.292 699.035 275.557 700.915C273.47 706.334 269.543 708.551 264.593 710.688C261.465 710.883 258.325 710.864 255.329 709.829C251.223 708.41 247.556 705.165 245.943 701.071C243.391 694.588 244.75 559.173 244.747 539.566L244.723 424.732C244.721 404.848 244.706 384.964 244.77 365.081C244.802 354.958 246.637 349.067 257.031 345.501Z"></path><path fill="#A953D7" transform="matrix(0.935643 0 0 0.935882 -127.248 -127.28)" d="M216.955 413.009C223.89 412.277 233.514 415.817 234.915 422.084C237.258 432.563 236.508 450.925 236.58 461.668L236.932 522.424L237.37 595.591C237.446 608.494 237.676 621.384 237.581 634.288C237.511 643.838 233.935 648.041 225.217 651.497C221.734 651.942 218.404 651.76 215.14 650.39C211.312 648.782 207.935 645.534 206.578 641.551C204.394 635.141 205.14 558.191 205.055 545.537L204.566 468.002C204.489 454.641 204.242 441.267 204.454 427.911C204.581 419.908 209.97 415.488 216.955 413.009Z"></path><path fill="#F020D5" transform="matrix(0.935643 0 0 0.935882 -127.248 -127.28)" d="M179.105 468.878C182.438 468.592 185.448 468.938 188.513 470.372C192.065 472.034 195.548 475.371 196.793 479.167C198.533 484.473 198.308 565.361 197.581 575.729C197.391 578.437 197.211 581.208 195.871 583.633C193.285 588.31 189.482 590.662 184.442 592.037C170.522 592.643 165.668 584.735 165.681 572.003C165.709 543.037 165.383 514.042 165.814 485.082C165.95 475.941 170.795 471.463 179.105 468.878Z"></path><path fill="#FEFEFE" transform="matrix(0.935643 0 0 0.935882 -127.248 -127.28)" d="M646.703 473.974C655.575 473.871 672.197 472.238 678.039 479.417C688.303 492.031 684.168 512.204 667.799 516.962C670.366 521.065 683.904 542.263 684.959 545.014C683.046 545.516 680.038 545.41 677.969 545.433C679.94 548.058 683.555 552.504 684.458 555.456C683.982 556.747 684.323 556.169 683.448 557.196C678.609 549.626 674.301 543.546 665.145 540.755C661.445 539.627 656.51 539.744 653.036 541.624C653.053 543.068 653.21 543.921 652.803 545.265L652.785 545.684C646.182 550.496 644.728 552.765 641.199 559.771L639.835 556.66L638.681 554.849C638.466 554.035 637.731 552.446 637.373 551.602C640.816 547.102 642.312 545.244 646.512 541.483L646.472 497.279C646.466 491.313 646.147 479.544 646.703 473.974Z"></path><path fill="#0D283A" transform="matrix(0.935643 0 0 0.935882 -127.248 -127.28)" d="M653.266 517.315L660.958 517.312C665.634 524.953 672.82 535.892 676.865 543.523C679.298 545.613 681.623 545.093 684.959 545.014C683.046 545.516 680.038 545.41 677.969 545.433C679.94 548.058 683.555 552.504 684.458 555.456C683.982 556.747 684.323 556.169 683.448 557.196C678.609 549.626 674.301 543.546 665.145 540.755C661.445 539.627 656.51 539.744 653.036 541.624C653.623 534.22 652.57 525.088 653.266 517.315Z"></path><path fill="#563884" transform="matrix(0.935643 0 0 0.935882 -127.248 -127.28)" d="M653.266 517.315C653.747 523.346 653.531 531.635 653.515 537.877C661.341 537.64 664.462 537.544 671.789 541.252C673.185 541.958 675.463 543.39 676.865 543.523C679.298 545.613 681.623 545.093 684.959 545.014C683.046 545.516 680.038 545.41 677.969 545.433C679.94 548.058 683.555 552.504 684.458 555.456C683.982 556.747 684.323 556.169 683.448 557.196C678.609 549.626 674.301 543.546 665.145 540.755C661.445 539.627 656.51 539.744 653.036 541.624C653.623 534.22 652.57 525.088 653.266 517.315Z"></path><path fill="#9734AB" transform="matrix(0.935643 0 0 0.935882 -127.248 -127.28)" d="M646.512 541.483L646.472 497.279C646.466 491.313 646.147 479.544 646.703 473.974C647.759 490.146 646.352 509.73 646.902 526.186C647.046 530.475 646.482 540.953 647.19 544.407C647.704 544.829 647.843 545.028 648.431 545.293C649.974 545.185 651.278 544.999 652.803 545.265L652.785 545.684C646.182 550.496 644.728 552.765 641.199 559.771L639.835 556.66L638.681 554.849C638.466 554.035 637.731 552.446 637.373 551.602C640.816 547.102 642.312 545.244 646.512 541.483Z"></path><path fill="#9734AB" transform="matrix(0.935643 0 0 0.935882 -127.248 -127.28)" d="M648.431 545.293C649.974 545.185 651.278 544.999 652.803 545.265L652.785 545.684C646.182 550.496 644.728 552.765 641.199 559.771L639.835 556.66C643.121 551.544 645.683 549.331 648.431 545.293Z"></path><path fill="#0D283A" transform="matrix(0.935643 0 0 0.935882 -127.248 -127.28)" d="M638.681 554.849C640.424 550.97 643.79 545.149 648.431 545.293C645.683 549.331 643.121 551.544 639.835 556.66L638.681 554.849Z"></path><path fill="#0D283A" transform="matrix(0.935643 0 0 0.935882 -127.248 -127.28)" d="M653.188 479.833C658.349 479.77 667.253 479.115 671.472 482.146C679.09 487.621 678.033 500.467 673.281 507.36C667.937 512.502 660.262 511.496 653.189 511.426L653.188 479.833Z"></path><path fill="#FEFEFE" transform="matrix(0.935643 0 0 0.935882 -127.248 -127.28)" d="M824.396 617.633C844.703 616.501 846.154 633.787 845.537 649.329C844.931 664.606 849.138 681.715 829.257 686.095C810.405 687.189 806.658 673.251 807.389 657.554C808.132 641.571 803.003 621.495 824.396 617.633Z"></path><path fill="#0D283A" transform="matrix(0.935643 0 0 0.935882 -127.248 -127.28)" d="M823.203 623.453C826.006 623.261 828.796 623.118 831.473 624.133C834.572 625.309 836.776 627.654 838.015 630.698C840.552 636.931 840.389 668.343 837.591 674.175C836 677.494 833.247 678.995 829.935 680.243C808.553 682.36 814.166 660.047 813.428 646.031C812.915 636.292 813.121 627.271 823.203 623.453Z"></path><path fill="#FEFEFE" transform="matrix(0.935643 0 0 0.935882 -127.248 -127.28)" d="M758.356 618.723L764.358 618.72C772.136 635.525 781.336 657.16 789.498 673.223C789.356 660.514 788.497 647.66 788.883 634.916C788.975 631.861 788.117 620.257 790.029 618.673C791.473 618.605 792.593 618.341 793.741 619.111C795.659 622.584 794.765 636.84 794.768 641.473L794.757 685.034L788.723 685.027C780.2 666.692 771.4 648.424 763.717 629.737C764.258 647.294 764.151 664.863 764.254 682.428C764.262 683.74 763.768 684.301 762.838 685.003C761.146 685.046 759.903 685.332 758.624 684.346C757.932 680.09 758.241 667.348 758.246 662.224L758.356 618.723Z"></path><path fill="#FEFEFE" transform="matrix(0.935643 0 0 0.935882 -127.248 -127.28)" d="M744.558 473.988C750.146 473.959 773.14 473.523 777.313 474.31C777.953 475.81 777.742 478.03 777.719 479.751L750.907 479.747L750.89 505.942L775.999 505.929L775.991 511.811L750.901 511.811L750.906 520.356L750.907 539.225C755.342 539.224 776.543 538.444 778.468 540.058C778.548 542.447 779.018 543.199 777.974 544.803C774.245 545.533 749.743 545.09 744.564 545.066L744.558 473.988Z"></path><path fill="#FEFEFE" transform="matrix(0.935643 0 0 0.935882 -127.248 -127.28)" d="M723.217 618.178C738.005 616.597 743.526 622.985 745.834 636.692L740.185 636.798C738.799 629.5 736.629 623.933 728.321 623.177C710.657 621.569 715.692 649.169 715.08 659.721C714.547 668.915 715.92 679.995 726.903 680.362C742.496 680.883 740.647 666.414 740.548 655.586C738.095 653.728 731.323 656.765 727.598 653.824C727.199 651.684 727.286 652.411 728.047 650.132C730.859 649.312 742.6 649.669 746.216 649.699C746.212 661.017 748.735 680.163 735.756 684.381C714.067 691.193 707.988 674.44 709.39 656.491C710.547 641.692 704.374 623.809 723.217 618.178Z"></path><path fill="#FEFEFE" transform="matrix(0.935643 0 0 0.935882 -127.248 -127.28)" d="M512.013 602.046C515.43 602.774 518.602 601.144 520.511 604.341C519.827 607.894 510.654 626.812 508.319 631.649C499.911 649.07 491.843 667.159 483.275 684.455C479.773 684.851 476.43 684.558 472.912 684.376C480.52 667.308 489.262 649.873 497.105 632.817C500.662 625.081 507.981 608.593 512.013 602.046Z"></path><path fill="#FEFEFE" transform="matrix(0.935643 0 0 0.935882 -127.248 -127.28)" d="M712.257 472.685C713.674 472.686 715.26 472.832 716.661 473.052C721.273 473.777 725.529 476.072 728.309 479.874C730.034 482.232 733.168 488.772 732.329 491.846C732.148 492.508 731.392 493.009 730.784 493.239C724.848 495.482 725.408 482.759 719.976 479.918C716.666 478.186 711.513 477.886 708.019 479.173C704.894 480.323 702.79 482.824 701.584 485.861C699.205 491.855 699.055 527.534 701.625 533.28C703.025 536.413 705.956 539.054 709.249 540.076C713.288 541.329 717.466 540.159 721.125 538.375C725.925 533.889 725.191 531.851 727.458 526.017C729.291 524.988 733.003 525.924 732.814 528.236C730.942 551.123 697.566 552.993 694.372 529.641C693.587 523.161 693.846 516.465 693.896 509.914C694.023 493.349 690.754 475.287 712.257 472.685Z"></path><path fill="#FEFEFE" transform="matrix(0.935643 0 0 0.935882 -127.248 -127.28)" d="M790.763 473.999C793.206 473.885 794.452 473.672 796.801 474.33C797.723 476.475 797.217 532.393 797.213 538.978C801.931 538.959 818.655 538.589 822.592 539.278C823.45 540.957 823.182 543.1 823.146 545.06L790.795 545.08L790.763 473.999Z"></path><path fill="#FEFEFE" transform="matrix(0.935643 0 0 0.935882 -127.248 -127.28)" d="M858.329 618.73L864.244 618.743L864.244 679.368C868.982 679.338 884.034 678.961 887.973 679.745C888.649 681.366 888.428 683.131 888.427 684.985C878.831 685.275 867.996 685.028 858.301 685.032L858.329 618.73Z"></path><path fill="#FEFEFE" transform="matrix(0.935643 0 0 0.935882 -127.248 -127.28)" d="M669.321 751.136C672.37 750.99 676.75 750.519 679.57 751.398C690.546 754.816 690.187 763.566 680.343 768.163C682.229 771.214 686.88 777.269 687.012 780.433L686.362 780.873C684.134 780.304 685.111 780.863 683.522 778.833C681.897 776.32 678.759 769.734 676.607 768.644C668.829 764.701 673.302 777.331 671.432 780.64L670.288 780.848L669.411 779.889C668.745 777.393 668.938 754.627 669.321 751.136Z"></path><path fill="#0D283A" transform="matrix(0.935643 0 0 0.935882 -127.248 -127.28)" d="M671.981 753.997C678.5 753.858 688.219 754.207 682.678 763.646C679.005 765.714 676.289 765.217 672.006 765.173L671.981 753.997Z"></path><path fill="#FEFEFE" transform="matrix(0.935643 0 0 0.935882 -127.248 -127.28)" d="M439.832 751.083C444.938 750.876 450.085 750.235 454.556 753.404C458.417 756.141 459.655 761.07 456.008 764.643C452.14 768.431 448.476 768.243 443.452 768.202C440.873 769.416 444.039 776.945 441.819 780.584L440.709 780.828L439.913 780.09C439.147 776.382 439.236 755.255 439.832 751.083Z"></path><path fill="#0D283A" transform="matrix(0.935643 0 0 0.935882 -127.248 -127.28)" d="M442.483 754.049C448.903 753.856 458.722 754.021 453.245 763.572C449.408 765.772 447.002 765.228 442.474 765.165L442.483 754.049Z"></path><defs><linearGradient id="gradient_5" gradientUnits="userSpaceOnUse" x1="510.83844" y1="598.34222" x2="579.1803" y2="592.27161"><stop offset="0" stop-color="#464081"></stop><stop offset="1" stop-color="#D02BCA"></stop></linearGradient></defs><path fill="url(#gradient_5)" transform="matrix(0.935643 0 0 0.935882 -127.248 -127.28)" d="M576.091 572.093L578.707 572.016C576.477 584.263 574.245 604.908 563.043 612.622C553.844 618.957 540.875 613.895 536.017 604.587C531.469 596.737 529.824 589.076 527.575 580.509C522.497 590.349 519.797 595.113 510.794 601.684L510.655 598.816C516.823 594.194 519.914 590.256 523.518 583.291C524.81 580.796 525.729 578.362 527.338 576.076L528.259 575.969C530.106 578.28 534.002 599.737 539.614 605.256C542.604 609.23 546.363 612.216 551.626 612.87C570.32 615.193 574.486 585.026 576.091 572.093Z"></path><path fill="#FEFEFE" transform="matrix(0.935643 0 0 0.935882 -127.248 -127.28)" d="M472.036 750.614C474.985 752.501 484.837 776.615 485.101 780.727L484.404 780.935C481.73 778.816 480.329 774.739 479.049 771.61L473.038 771.604L465.644 771.595C464.624 774.19 462.973 779.486 460.881 780.855L459.846 780.594L459.512 779.381C460.895 774.802 469.811 754.164 472.036 750.614Z"></path><path fill="#0D283A" transform="matrix(0.935643 0 0 0.935882 -127.248 -127.28)" d="M472.199 756.103C473.421 757.522 476.651 765.819 477.496 768.002C476.282 769.033 476.239 768.672 474.214 768.736L466.972 768.682L472.199 756.103Z"></path><path fill="#FEFEFE" transform="matrix(0.935643 0 0 0.935882 -127.248 -127.28)" d="M577.418 750.907C583.185 753.403 572.606 781.896 589.263 777.966C598.821 775.711 592.278 756.929 595.16 751.368L596.218 751.115C597.799 752.395 597.251 751.554 597.509 753.97C597.509 762.545 600.302 777.682 590.231 780.726C587.169 781.641 583.863 781.217 581.131 779.559C574.757 775.614 575.068 754.544 577.418 750.907Z"></path><path fill="#FEFEFE" transform="matrix(0.935643 0 0 0.935882 -127.248 -127.28)" d="M517.844 751.044C521.305 750.95 531.398 750.215 533.455 752.729C530.966 754.597 523.834 754.121 520.505 754.052L520.492 764.614C523.663 764.559 528.898 763.673 530.85 766.143C528.941 768.766 525.687 766.817 521.29 767.511C520.175 768.761 520.56 768.639 520.503 770.845L520.533 778.072C525.444 777.944 528.729 777.539 533.387 779.101L533.366 779.751C529.096 781.659 522.446 781.081 517.637 780.968C517.325 776.572 517.134 755.147 517.844 751.044Z"></path><path fill="#FEFEFE" transform="matrix(0.935643 0 0 0.935882 -127.248 -127.28)" d="M559.315 750.992C563.19 750.661 572.891 751.952 572.976 756.951C570.7 758.12 564.843 753.433 561.416 753.814C545.223 755.615 545.517 778.528 563.994 778.284C567.858 777.268 570.137 774.462 572.696 774.901L572.63 775.905C565.663 785.659 551.377 781.551 547.714 771.275C546.247 767.152 546.596 762.6 548.674 758.749C551.178 754.163 554.529 752.374 559.315 750.992Z"></path><path fill="#FEFEFE" transform="matrix(0.935643 0 0 0.935882 -127.248 -127.28)" d="M499.054 751.047C503.198 750.72 513.284 751.678 513.375 757.289C510.615 758.77 508.391 754.443 504.226 753.902C500.816 753.449 497.366 754.379 494.646 756.486C492.087 758.492 490.447 761.446 490.098 764.679C489.147 773.458 495.543 778.043 503.642 778.38C507.431 777.636 510.71 773.909 513.469 775.327C512.912 777.374 509.254 779.36 507.448 780.193C499.714 783.754 490.903 779.098 488.144 771.696C486.652 767.704 486.832 763.279 488.644 759.422C491.002 754.524 494.206 752.713 499.054 751.047Z"></path><path fill="#FEFEFE" transform="matrix(0.935643 0 0 0.935882 -127.248 -127.28)" d="M643.377 750.854L644.883 751.524C648.143 757.652 639.664 781.42 655.482 777.988C665.27 775.865 658.247 756.695 661.507 751.208L662.427 751.07C663.918 752.231 663.434 751.488 663.817 753.442C663.802 758.533 664.443 769.723 663.088 774.078C662.231 776.839 660.277 779.127 657.684 780.405C652.214 783.079 646.345 780.414 643.932 775.134C642.025 770.962 641.817 754.775 643.377 750.854Z"></path><path fill="#FEFEFE" transform="matrix(0.935643 0 0 0.935882 -127.248 -127.28)" d="M396.29 751.079C399.628 750.971 409.446 750.16 411.451 752.697C409.078 754.658 401.997 754.127 398.723 754.057L398.72 764.614C401.728 764.594 405.133 764.448 408.077 764.839C408.987 766.066 408.843 765.399 408.839 766.779C405.721 768.103 401.952 765.907 398.854 768.566L398.729 771.372L398.779 778.091C403.291 777.958 407.607 777.576 411.897 779.126L411.885 779.663C407.834 781.649 400.601 781.076 395.935 780.983C395.588 776.28 395.318 754.679 396.29 751.079Z"></path><path fill="#FEFEFE" transform="matrix(0.935643 0 0 0.935882 -127.248 -127.28)" d="M422.377 751.018C426.16 750.575 433.443 751.716 433.92 756.253L433.448 756.634C430.028 756.904 428.505 753.591 425.314 753.587C421.65 753.583 418.962 755.731 418.928 759.349C420.898 762.918 425.704 763.399 429.187 765.203C438.952 770.26 436.215 779.125 425.774 781.391C421.943 781.27 415.131 778.906 415.223 774.325C419.98 774.38 427.656 784.045 432.19 773.428C432.042 769.018 425.949 767.195 422.437 765.524C413.632 761.333 412.581 755.563 422.377 751.018Z"></path><path fill="#FEFEFE" transform="matrix(0.935643 0 0 0.935882 -127.248 -127.28)" d="M692.503 751.107L697.47 750.95C700.386 750.873 705.741 750.567 707.913 752.626C705.915 754.693 698.247 754.114 695.244 754.05L695.224 764.608C698.043 764.578 703.647 764.075 705.428 765.802C704.238 768.12 698.422 766.532 695.466 768.049L695.236 769.79L695.243 778.056C700.03 777.945 703.604 777.522 708.116 779.144L708.049 779.754C703.95 781.634 697.06 781.08 692.392 780.984C692.269 771.879 692.036 760.094 692.503 751.107Z"></path><defs><linearGradient id="gradient_6" gradientUnits="userSpaceOnUse" x1="685.15594" y1="576.47717" x2="649.13092" y2="576.2171"><stop offset="0" stop-color="#3F3871"></stop><stop offset="1" stop-color="#783697"></stop></linearGradient></defs><path fill="url(#gradient_6)" transform="matrix(0.935643 0 0 0.935882 -127.248 -127.28)" d="M647.885 573.708L648.089 573.29C649.56 570.225 650.746 566.736 652.119 563.624C656.879 552.83 663.692 554.865 668.503 564.238C672.977 572.956 675.134 582.901 681.021 590.866C682.08 592.313 684.413 593.507 685.821 594.73L684.718 596.246C678.114 595.527 671.521 577.456 669.348 571.891C659.79 547.41 654.206 563.017 649.646 577.384C649.048 576.232 648.449 574.894 647.885 573.708Z"></path><path fill="#563884" transform="matrix(0.935643 0 0 0.935882 -127.248 -127.28)" d="M644.782 567.167C648.396 564.889 650.055 550.518 659.08 551.703C675.885 553.91 675.669 577.135 685.627 589.361L685.553 590.012C682.495 589.302 682.619 589.111 680.907 586.584C674.519 577.149 672.669 558.592 661.438 553.499C654.421 550.318 648.212 567.367 646.687 571.63C646.349 570.3 645.397 568.478 644.782 567.167Z"></path><path fill="#563884" transform="matrix(0.935643 0 0 0.935882 -127.248 -127.28)" d="M642.132 561.567C646.51 557.25 648.913 547.481 657.189 546.896C662.056 546.553 665.914 547.604 669.555 550.811C671.905 552.909 673.923 555.353 675.539 558.057C677.449 561.184 685.289 579.186 685.457 582.377L685.004 583.017C680.66 582.006 677.11 554.244 663.633 549.87C660.571 548.855 657.228 549.128 654.37 550.625C648.966 553.433 645.961 560.373 644.047 565.886L642.132 561.567Z"></path><path fill="#563884" transform="matrix(0.935643 0 0 0.935882 -127.248 -127.28)" d="M650.538 579.558C653.424 576.903 655.044 563.03 659.602 561.655C666.751 563.906 671.533 589.859 678.674 595.015C680.023 595.99 682.412 598.781 683.28 600.173L683.162 600.018L682.394 600.362C665.933 589.237 668.792 575.396 659.96 563.59C656.354 570.945 654.888 575.95 652.626 583.73L650.538 579.558Z"></path><path fill="#FEFEFE" transform="matrix(0.935643 0 0 0.935882 -127.248 -127.28)" d="M619.569 751.127C623.157 750.958 638.011 749.859 639.752 752.683L639.036 753.689C636.808 754.235 633.377 754.053 630.985 754.044L630.992 773.116C631.02 775.6 631.789 780.092 629.197 780.855L628.345 780.11C627.578 774.497 628.007 760.207 628.037 754.045C625.409 754.157 622.859 754.49 620.388 753.741C619.198 752.38 619.559 753.186 619.569 751.127Z"></path><path fill="#FEFEFE" transform="matrix(0.935643 0 0 0.935882 -127.248 -127.28)" d="M713.192 751.062C714.061 751.159 714.407 751.295 715.251 751.525C716.819 754.119 716.102 773.978 716.072 778.018C719.334 778.064 725.81 777.222 728.239 778.752C728.923 779.183 728.778 779.873 728.949 780.938C723.887 781.126 718.204 780.983 713.094 780.966C712.921 772.366 712.674 759.524 713.192 751.062Z"></path><path fill="#FEFEFE" transform="matrix(0.935643 0 0 0.935882 -127.248 -127.28)" d="M603.649 750.639L605.077 751.455C606.48 754.279 605.828 773.464 605.782 778.003C609.58 777.982 615.849 777.164 618.392 779.175L618.383 780.992C613.216 781.034 607.986 780.976 602.812 780.96C602.76 775.902 601.945 753.724 603.649 750.639Z"></path><defs><linearGradient id="gradient_7" gradientUnits="userSpaceOnUse" x1="683.84711" y1="556.17804" x2="654.60822" y2="557.64862"><stop offset="0" stop-color="#433671"></stop><stop offset="1" stop-color="#6B3996"></stop></linearGradient></defs><path fill="url(#gradient_7)" transform="matrix(0.935643 0 0 0.935882 -127.248 -127.28)" d="M653.036 541.624L653.721 542.524C663.284 543.413 668.231 541.083 676.447 550.976C682.01 557.676 685.503 568.745 688.445 577.072C686.845 574.459 686.32 573.702 685.361 570.733L684.722 571.339L685.555 574.567L685.122 574.773C679.336 558.733 674.087 541.206 652.785 545.684L652.803 545.265C653.21 543.921 653.053 543.068 653.036 541.624Z"></path><path fill="#563884" transform="matrix(0.935643 0 0 0.935882 -127.248 -127.28)" d="M523.216 572.171L526.27 572.027C516.134 595.583 509.527 602.737 482.905 601.401C485.086 600.628 492.582 602.069 495.879 600.564L495.705 600.101C492.543 600.165 485.123 600.599 482.477 599.77C487.137 599.783 491.85 599.795 496.496 599.468C509.669 598.54 520.011 584.025 523.216 572.171Z"></path><path fill="#563884" transform="matrix(0.935643 0 0 0.935882 -127.248 -127.28)" d="M518.285 572.154L521.206 571.861C511.636 597.668 501.143 597.689 476.885 596.654C480.657 595.386 489.43 598.188 493.268 595.39L491.303 595.301C493.038 594.293 498.767 595.068 502.093 593.321C510.034 589.149 515.664 580.526 518.285 572.154Z"></path><path fill="#563884" transform="matrix(0.935643 0 0 0.935882 -127.248 -127.28)" d="M513.227 572.162L516.415 571.819C512.16 581.159 506.791 591.377 495.325 592.355C493.614 592.501 481.853 592.379 481.2 591.828C485.72 591.073 490.013 592.187 494.465 591.538L494.887 590.816C491.622 590.298 484.419 590.773 480.448 590.519C486.401 589.213 494.371 591.996 500.828 588.459C507.176 584.982 511.272 579.045 513.227 572.162Z"></path><path fill="#563884" transform="matrix(0.935643 0 0 0.935882 -127.248 -127.28)" d="M508.521 572.098L511.277 571.9C501.884 591.67 494.248 588.247 474.579 587.663C476.632 586.902 488.708 588.099 493.095 587.273L492.583 586.359C487.799 586.427 483.014 586.397 478.231 586.268C495.504 584.506 498.519 590.665 508.521 572.098Z"></path><path fill="#563884" transform="matrix(0.935643 0 0 0.935882 -127.248 -127.28)" d="M510.655 598.816L510.794 601.684C499.702 606.935 499.143 605.65 486.904 604.897C484.229 604.733 480.586 605.081 477.568 604.891C490.342 602.032 496.079 607.854 510.655 598.816Z"></path><path fill="#563884" transform="matrix(0.935643 0 0 0.935882 -127.248 -127.28)" d="M503 572.109L506.072 571.989C504.566 574.868 501.241 581.562 497.889 581.994L497.291 581.376C498.219 578.486 501.616 576.56 503 572.109Z"></path></g></svg>