<?xml version="1.0"?><svg xmlns="http://www.w3.org/2000/svg" xmlns:xlink="http://www.w3.org/1999/xlink" width="480" height="480" viewBox="0 0 480 480"><path fill="#F85690" d="M195.994 4.59481C197.446 4.11325 203.675 3.17965 205.483 2.91212C223.199 0.291543 239.204 0.0938009 256.923 1.07204C266.831 1.91749 275.505 2.85084 285.349 4.76668C338.683 15.0526 386.938 43.1596 422.198 84.4768C455.36 123.243 475.234 171.612 478.907 222.495C480.244 240.428 479.567 258.454 476.888 276.236C476.516 278.677 476.023 282.171 475.414 284.535C474.743 289.835 472.674 297.657 471.269 302.864C462.669 334.647 447.568 364.3 426.921 389.948C425.44 391.783 417.493 401.528 416.199 402.277C413.972 405.163 409.816 409.131 407.179 411.713C391.471 427.093 375.568 438.298 356.727 449.392C348.426 453.679 340.558 457.934 331.831 461.418C330.622 461.901 326.979 463.521 325.825 463.663C318.828 467.039 298.521 472.81 291.167 474.108C288.352 475.196 276.919 476.887 273.209 477.673C265.743 478.195 258.314 479.03 250.843 479.45C249.182 479.544 248.004 479.63 246.395 480L234.55 480C230.584 479.188 223.533 479.232 218.927 478.638C211.4 477.936 200.966 476.944 193.567 475.046C192.476 473.769 183.748 472.932 183.593 472.338C182.067 466.488 166.197 456.5 167.891 450.808C168.044 450.675 168.155 450.466 168.35 450.409C169.71 450.007 187.717 457.073 190.212 455.908C147.338 446.037 108.388 423.587 78.357 391.435C73.8284 386.625 69.5151 381.616 65.4299 376.424C64.084 374.704 60.5742 369.707 59.4202 368.488L59.169 368.227C59.0191 368.311 58.7366 368.384 58.5597 368.44L58.4151 367.982C50.1665 370.404 28.7696 343.881 24.1196 343.104C24.5001 344.08 24.4781 343.613 24.3411 344.541C23.8236 344.111 21.7471 339.163 21.328 338.25C12.5808 319.185 7.53367 300.791 3.65456 280.235C2.50681 272.946 1.81867 266.511 1.13084 259.197C0.659413 253.942 0.686025 246.715 0 241.962L0 238.867C0.545501 235.917 0.854435 225.697 1.05497 222.106C1.27025 220.693 1.32642 219.217 1.48333 217.79C2.57401 207.871 3.59182 197.073 6.27355 187.442C9.06635 171.654 22.0194 135.726 31.1486 122.71C32.1933 120.38 34.7923 116.327 36.1736 114.052C42.0335 104.588 48.5434 95.5435 55.6565 86.9822C58.034 84.1066 61.2072 80.2728 63.874 77.6704C66.8335 73.7039 81.9758 59.5007 86.2137 56.3554C93.6711 48.8333 124.838 28.3963 134.729 24.8597C137.036 23.4065 142.779 20.9671 145.359 19.872C158.937 14.0523 173.02 9.49113 187.432 6.24585C189.459 5.78465 193.978 4.72322 195.994 4.59481Z"></path><defs><linearGradient id="gradient_0" gradientUnits="userSpaceOnUse" x1="332.8233" y1="147.17145" x2="409.1076" y2="71.095566"><stop offset="0" stop-color="#E9E0A0"></stop><stop offset="1" stop-color="#AAFBFF"></stop></linearGradient></defs><path fill="url(#gradient_0)" d="M195.994 4.59481C197.446 4.11325 203.675 3.17965 205.483 2.91212C223.199 0.291543 239.204 0.0938009 256.923 1.07204C266.831 1.91749 275.505 2.85084 285.349 4.76668C338.683 15.0526 386.938 43.1596 422.198 84.4768C455.36 123.243 475.234 171.612 478.907 222.495C480.244 240.428 479.567 258.454 476.888 276.236C476.516 278.677 476.023 282.171 475.414 284.535L475.171 284.586C474.992 284.93 474.825 285.231 474.63 285.567C469.466 281.826 464.468 277.74 459.455 273.795C459.713 273.998 459.484 270.59 459.411 270.264C461.891 253.404 461.95 234.936 460.358 217.981C454.618 159.964 426.172 106.569 381.223 69.4409C344.24 38.7417 298.251 20.9447 250.237 18.7507C236.133 18.1589 225.933 18.9583 212.117 20.2747C210.709 19.6954 208.503 20.4027 206.669 20.5973C202.444 15.9659 198.548 11.0447 195.01 5.8697C194.985 4.15552 195.143 5.97675 195.994 4.59481Z"></path><path fill="#FBD2B2" d="M134.729 24.8597C137.036 23.4065 142.779 20.9671 145.359 19.872C158.937 14.0523 173.02 9.49113 187.432 6.24585C189.459 5.78465 193.978 4.72322 195.994 4.59481C195.143 5.97675 194.985 4.15552 195.01 5.8697C198.548 11.0447 202.444 15.9659 206.669 20.5973C208.503 20.4027 210.709 19.6954 212.117 20.2747C192.479 23.3681 174.492 26.9955 156.113 34.9741C155.381 35.2919 153.658 36.0569 152.964 36.1753L152.763 36.2879C149.78 37.9268 145.307 39.7651 142.103 41.3163C136.18 44.2374 130.375 47.3914 124.701 50.7708C120.073 53.586 115.491 56.8688 111.044 59.9539C109.954 60.7104 105.026 64.4699 104.273 64.8437C97.6039 70.3132 91.3151 75.6341 85.123 81.6715C81.2974 85.4014 77.7358 89.7319 73.9523 93.344C71.2947 96.7307 67.7321 100.276 65.3023 103.537C58.5818 112.558 51.7013 122.25 46.4663 132.201C46.0351 133.021 45.4269 133.797 45.0889 134.514C45.1157 133.558 45.667 132.549 46.341 131.872C46.5183 130.304 45.8135 129.877 44.8267 128.762C44.4209 128.746 44.0148 128.739 43.6087 128.742C41.8985 126.81 39.7187 124.791 38.0581 123.085C32.0426 116.904 32.7981 122.6 31.2518 122.759L31.1486 122.71C32.1933 120.38 34.7923 116.327 36.1736 114.052C42.0335 104.588 48.5434 95.5435 55.6565 86.9822C58.034 84.1066 61.2072 80.2728 63.874 77.6704C66.8335 73.7039 81.9758 59.5007 86.2137 56.3554C93.6711 48.8333 124.838 28.3963 134.729 24.8597Z"></path><path fill="#FCD87B" d="M134.729 24.8597C137.036 23.4065 142.779 20.9671 145.359 19.872C158.937 14.0523 173.02 9.49113 187.432 6.24585C189.459 5.78465 193.978 4.72322 195.994 4.59481C195.143 5.97675 194.985 4.15552 195.01 5.8697C198.548 11.0447 202.444 15.9659 206.669 20.5973C208.503 20.4027 210.709 19.6954 212.117 20.2747C192.479 23.3681 174.492 26.9955 156.113 34.9741C155.381 35.2919 153.658 36.0569 152.964 36.1753L152.598 36.0731C152.648 35.3589 170.628 29.0891 172.27 28.599C173.638 28.1906 173.932 28.2436 174.627 26.9979L174.976 26.9704L175.175 27.5332C175.917 27.4852 189.425 23.8445 189.767 23.6187C189.586 23.2817 189.401 22.9468 189.212 22.6142L189.156 22.7983L189.413 22.5699C190.153 22.6837 190.796 22.8957 191.431 22.5824C191.914 21.3541 191.114 22.8588 190.627 20.6681C190.019 20.4653 189.47 21.0566 188.463 21.4597C186.544 21.19 185.345 18.7526 183.671 17.9103C181.754 16.9459 178.499 16.8111 176.784 15.5527L176.901 15.1857L178.49 14.5013L178.596 14.0912C177.374 14.1518 176.25 13.6689 175.297 12.9492C173.878 11.8774 173.435 12.4333 172.07 11.9002L172.173 11.5722C173.65 11.011 173.373 11.66 174.571 11.4244C175.663 8.92133 176.024 10.9248 178.837 9.28741L178.662 9.01904C177.445 8.90575 169.609 11.8523 168.112 11.9769C163.254 12.3811 136.344 25.012 134.729 24.8597Z"></path><path fill="#FDE4D9" d="M86.2137 56.3554L86.2819 56.866C84.1275 58.9407 81.6293 61.0526 79.3472 63.0118C79.6608 64.8119 81.1319 65.5279 81.9086 67.3362C81.3831 67.7831 80.9014 68.0221 80.3058 68.3592C78.1354 67.7331 76.2776 67.0697 74.1287 68.2093C72.0448 69.3144 64.9905 77.8017 63.9271 77.6956C63.9076 77.6936 63.8917 77.6788 63.874 77.6704C66.8335 73.7039 81.9758 59.5007 86.2137 56.3554Z"></path><path fill="#FDE4D9" d="M73.9523 93.344L73.6809 92.9995C74.2615 92.1783 75.5245 90.996 76.2623 90.1809C79.2027 86.9325 82.3633 83.8526 85.3581 80.666C86.5925 79.3525 85.2011 76.8423 85.0349 74.7681C85.6843 74.451 87.2098 74.7571 88.0192 74.8525C89.3094 73.7897 88.291 74.0711 90.0104 73.8554L90.2957 74.1148C89.8537 74.8128 88.3815 75.8044 87.6543 76.3518C88.3086 76.3238 88.0845 76.2137 88.5458 76.4765C88.1638 78.7222 87.9415 76.6383 87.6472 78.3028C87.9424 78.3416 88.0503 78.2652 88.2996 78.0263C93.1275 73.4023 98.3077 68.7428 103.652 64.716L104.273 64.8437C97.6039 70.3132 91.3151 75.6341 85.123 81.6715C81.2974 85.4014 77.7358 89.7319 73.9523 93.344Z"></path><path fill="#FCD87B" d="M170.806 12.2675C171.388 12.2647 171.348 12.2551 171.859 12.5351L171.787 13.0269C171.05 13.0034 171.29 13.0826 170.644 12.8127L170.806 12.2675Z"></path><defs><linearGradient id="gradient_1" gradientUnits="userSpaceOnUse" x1="487.29065" y1="315.69443" x2="395.01828" y2="355.10825"><stop offset="0" stop-color="#FBD777"></stop><stop offset="1" stop-color="#FCE3CB"></stop></linearGradient></defs><path fill="url(#gradient_1)" d="M459.411 270.264C459.484 270.59 459.713 273.998 459.455 273.795C464.468 277.74 469.466 281.826 474.63 285.567C474.825 285.231 474.992 284.93 475.171 284.586L475.414 284.535C474.743 289.835 472.674 297.657 471.269 302.864C462.669 334.647 447.568 364.3 426.921 389.948C425.44 391.783 417.493 401.528 416.199 402.277L415.948 401.931C416.642 400.758 417.254 400.279 418.098 399.215L418.025 398.857L417.274 398.802C416.094 397.387 415.448 395.931 414.431 394.494C412.27 391.441 410.289 389.639 409.168 385.97C408.502 385.614 408.491 385.508 407.771 385.6C407.103 386.257 406.929 386.384 406.058 386.727C407.735 384.541 410.109 381.913 411.929 379.673C415.45 375.308 418.832 370.832 422.068 366.251C442.437 337.104 454.209 305.291 459.411 270.264Z"></path><defs><linearGradient id="gradient_2" gradientUnits="userSpaceOnUse" x1="44.683117" y1="304.67859" x2="18.043228" y2="342.29575"><stop offset="0" stop-color="#65BCB8"></stop><stop offset="1" stop-color="#24F2C2"></stop></linearGradient></defs><path fill="url(#gradient_2)" d="M3.65456 280.235C10.0838 277.698 17.0906 291.545 23.2856 289.809L23.8631 289.227C29.3263 311.809 36.4678 330.828 48.202 351.091C50.3691 354.782 52.6391 358.412 55.0092 361.976C56.1611 363.708 58.18 366.507 59.169 368.227C59.0191 368.311 58.7366 368.384 58.5597 368.44L58.4151 367.982C50.1665 370.404 28.7696 343.881 24.1196 343.104C24.5001 344.08 24.4781 343.613 24.3411 344.541C23.8236 344.111 21.7471 339.163 21.328 338.25C12.5808 319.185 7.53367 300.791 3.65456 280.235Z"></path><defs><linearGradient id="gradient_3" gradientUnits="userSpaceOnUse" x1="355.21436" y1="441.6116" x2="414.60236" y2="392.52856"><stop offset="0" stop-color="#FA9BB3"></stop><stop offset="1" stop-color="#FCEDDA"></stop></linearGradient></defs><path fill="url(#gradient_3)" d="M406.058 386.727C406.929 386.384 407.103 386.257 407.771 385.6C408.491 385.508 408.502 385.614 409.168 385.97C410.289 389.639 412.27 391.441 414.431 394.494C415.448 395.931 416.094 397.387 417.274 398.802L418.025 398.857L418.098 399.215C417.254 400.279 416.642 400.758 415.948 401.931L416.199 402.277C413.972 405.163 409.816 409.131 407.179 411.713C391.471 427.093 375.568 438.298 356.727 449.392C348.426 453.679 340.558 457.934 331.831 461.418C330.622 461.901 326.979 463.521 325.825 463.663C325.89 463.52 325.956 463.376 326.022 463.233C327.971 462.449 331.651 460.967 333.437 460.191C341.256 456.851 348.896 453.107 356.327 448.975C357.132 448.527 360.045 446.987 360.514 446.523C360.082 444.54 350.762 437.749 349.743 435.088C349.401 434.195 349.993 433.855 349.875 433.038C345.091 434.823 338.641 439.307 333.821 441.15C330.273 442.507 310.973 451.067 308.712 450.641C311.006 449.566 313.496 449.017 315.839 448.118C320.211 446.442 324.725 444.733 329.018 442.872C349.393 434.003 368.286 422.059 385.037 407.457C389.023 404.019 393.032 400.171 396.813 396.489C399.658 393.72 403.115 389.266 406.058 386.727Z"></path><defs><linearGradient id="gradient_4" gradientUnits="userSpaceOnUse" x1="26.909904" y1="231.27806" x2="-2.5261872" y2="275.3956"><stop offset="0" stop-color="#BC81A0"></stop><stop offset="1" stop-color="#62C3B5"></stop></linearGradient></defs><path fill="url(#gradient_4)" d="M6.27355 187.442C6.59731 189.4 5.28428 194.122 4.92905 196.337C3.91265 202.673 2.47517 209.167 2.3914 215.58C2.38987 215.682 7.01994 218.887 7.47152 219.203C10.2465 221.149 14.2804 226.643 18.0875 225.772C19.3987 222.107 19.6525 205.708 20.3454 204.412C20.6957 206.942 19.9273 213.645 19.6688 216.407C19.2007 220.982 18.8758 225.571 18.6945 230.166C17.8249 251.808 19.3239 268.167 23.8631 289.227L23.2856 289.809C17.0906 291.545 10.0838 277.698 3.65456 280.235C2.50681 272.946 1.81867 266.511 1.13084 259.197C0.659413 253.942 0.686025 246.715 0 241.962L0 238.867C0.545501 235.917 0.854435 225.697 1.05497 222.106C1.27025 220.693 1.32642 219.217 1.48333 217.79C2.57401 207.871 3.59182 197.073 6.27355 187.442Z"></path><path fill="#6BBBAE" d="M193.567 475.046C192.476 473.769 183.748 472.932 183.593 472.338C182.067 466.488 166.197 456.5 167.891 450.808C168.044 450.675 168.155 450.466 168.35 450.409C169.71 450.007 187.717 457.073 190.212 455.908C193.604 456.636 197 457.346 200.4 458.038C200.638 458.248 200.876 458.458 201.114 458.668C206.844 459.881 213.112 460.508 218.893 461.061C220.962 461.259 223.456 461.237 224.943 461.696C224.969 462.256 224.974 462.047 224.754 462.608C226.137 464.11 226.421 466.169 227.568 467.788C228.728 469.425 230.318 470.851 231.566 472.43C233.097 474.86 234.032 476.179 235.793 478.465C235.659 478.815 235.637 479.128 235.383 479.148C230.754 479.512 223.185 478.016 218.927 478.638C211.4 477.936 200.966 476.944 193.567 475.046Z"></path><defs><linearGradient id="gradient_5" gradientUnits="userSpaceOnUse" x1="255.17024" y1="462.70691" x2="233.84203" y2="477.12277"><stop offset="0" stop-color="#BC7FA0"></stop><stop offset="1" stop-color="#90A2A9"></stop></linearGradient></defs><path fill="url(#gradient_5)" d="M200.4 458.038C225.016 462.083 248.525 462.731 273.266 459.363C273.826 459.287 274.528 459.255 275.018 459.525C273.481 460.014 271.47 459.882 269.749 460.093C265.656 460.595 261.549 461.041 257.44 461.396C256.585 461.47 254.368 461.397 253.826 461.658C253.071 464.968 262.795 475.486 265.58 477.621C270.009 478.371 279.497 475.734 284.215 475.119C286.336 474.843 288.841 473.977 290.997 473.829L291.167 474.108C288.352 475.196 276.919 476.887 273.209 477.673C265.743 478.195 258.314 479.03 250.843 479.45C249.182 479.544 248.004 479.63 246.395 480L234.55 480C230.584 479.188 223.533 479.232 218.927 478.638C223.185 478.016 230.754 479.512 235.383 479.148C235.637 479.128 235.659 478.815 235.793 478.465C234.032 476.179 233.097 474.86 231.566 472.43C230.318 470.851 228.728 469.425 227.568 467.788C226.421 466.169 226.137 464.11 224.754 462.608C224.974 462.047 224.969 462.256 224.943 461.696C223.456 461.237 220.962 461.259 218.893 461.061C213.112 460.508 206.844 459.881 201.114 458.668C200.876 458.458 200.638 458.248 200.4 458.038Z"></path><path fill="#FDE4D9" d="M371.449 257.731C375.943 257.087 379.569 257.886 383.74 259.476C385.644 260.379 386.983 261.455 388.738 262.593C389.999 263.45 390.624 264.168 391.396 265.5C392.733 267.173 396.01 270.12 396.722 271.23C397.087 271.943 397.124 272.071 397.648 272.705C398.451 273.79 399.587 276.526 398.185 277.564C397.793 278.3 397.422 279.012 396.994 279.728C396.778 280.701 396.769 280.649 396.104 281.419C395.429 282.354 395.31 282.453 394.351 283.099C389.668 286.938 390.141 289.497 384.573 292.971C382.426 294.056 380.786 295.616 379.128 296.436C377.798 297.173 377.082 297.591 375.541 297.878C376.894 300.559 379.644 302.667 381.609 304.93C382.432 305.878 383.176 307.249 383.805 308.358C383.499 309.756 383.315 310.263 383.797 311.633C384.085 312.448 384.285 313.931 384.026 314.775C383.427 316.724 381.948 318.395 381.301 320.374C380.621 322.452 380.658 327.336 379.714 329.006C379.334 329.809 378.826 330.984 378.415 331.733C377.549 333.415 377.142 334.252 376.004 335.742C374.247 336.632 373.433 338.453 372.845 340.272L372.778 340.487C371.616 347.234 370.374 347.678 368.176 353.154L367.976 353.609C365.645 360.243 364.732 364.702 365.389 371.955C365.771 376.16 366.304 379.216 365.826 383.538C365.779 384.904 365.851 385.979 365.933 387.34C358.356 384.824 356.99 382.211 355.348 374.667C353.365 365.553 354.09 359.83 356.777 351.096C357.954 347.268 359.39 343.035 360.574 339.154C363.215 330.491 366.59 322.113 369.029 313.407C369.412 311.999 369.805 309.839 369.5 308.436C369.196 307.043 367.362 306.252 366.234 305.698C364.263 304.761 364.478 304.438 362.367 305.108C361.362 306.843 360.518 307.316 358.794 308.281C357.533 311.298 355.778 314.053 354.847 317.268C354.666 317.89 354.017 319.648 353.661 320.093C352.946 322.399 352.87 323.373 351.71 325.574C350.902 327.856 349.537 333.658 349.574 336.002C349.395 336.241 349.176 336.556 348.982 336.771C347.731 337.989 346.842 341.153 345.51 341.894L345.272 341.876C344.571 341.828 344.593 341.74 344.005 341.99C343.749 342.616 343.746 342.564 343.173 342.944L342.875 342.818C339.89 337.452 347.589 314.227 347.944 307.476C347.992 306.563 347.465 305.343 347.155 304.514C350.308 300.14 350.71 296.583 352.267 291.504C354.361 284.898 356.367 278.265 358.283 271.606C356.436 271.853 354.912 272.036 353.243 272.896C350.317 275.541 348.993 276.563 353.285 278.309C352.046 281.774 351.141 283.932 348.4 286.525C345.941 288.852 343.946 292.221 340.865 293.761C340.266 294.061 339.794 294.459 339.315 294.915C339.075 294.781 338.51 294.341 338.258 294.157L338.01 293.806C336.611 294.122 336.453 294.693 335.602 295.978C334.845 296.88 333.795 298.227 332.641 298.53C331.434 298.229 331.681 297.758 331.668 296.532C330.231 297.832 329.664 298.331 328.039 299.347C328.932 295.084 330.522 291.461 332.36 287.536C331.183 287.872 325.923 290.448 324.454 291.16C322.77 293.017 322.628 292.255 320.286 292.88C319.844 292.933 319.154 292.967 318.785 293.138C317.926 293.562 317.295 293.697 316.818 294.405C316.477 299.931 315.351 302.831 312.886 307.928C312.354 309.026 311.05 310.698 310.749 311.588C316.383 309.379 328.206 301.626 333.337 302.718C333.969 303.006 334.704 302.712 335.376 302.56L335.865 302.725C335.963 304.143 332.942 306.139 332.066 307.161C331.164 308.213 331.157 310.208 329.978 311.123C327.391 313.984 321.162 319.361 317.617 320.756C314.825 322.457 312.898 324.437 310.349 326.259C309.269 327.03 305.445 329.434 304.285 329.986L303.101 330.493C302.447 330.872 302.246 330.815 301.516 330.816C299.593 333.318 297.748 339.116 296.941 339.923L296.74 340.104C296.334 340.764 296.509 340.701 295.933 341.056C295.312 342.163 294.425 342.822 293.368 343.537L292.799 343.899L292.283 345.453C294.642 344.65 300.223 340.612 302.768 339.183C312.217 333.879 326.157 327.587 337.042 327.511C338.738 327.564 339.512 327.489 340.804 328.599C340.997 329.442 341.03 329.022 340.548 329.882C339.731 330.524 339.039 330.564 338.016 330.776C336.677 331.14 335.863 331.302 334.62 331.947C333.515 332.638 332.702 333.184 331.503 333.72C329.635 334.478 326.734 335.655 325.061 336.644L323.777 337.422C317.047 341.691 310.331 345.253 304.184 350.348C301.59 352.498 298.605 354.386 296.033 356.629C293.734 359.417 293.391 360.156 291.842 363.226C291.289 362.704 291.327 362.722 290.988 362.032L290.286 361.792C289.167 363.494 287.428 365.351 286.089 367.22C284.194 369.193 277.337 371.525 274.642 371.537C271.229 371.639 270.269 371.239 267.193 369.614C265.755 368.854 263.843 368.122 262.312 367.517C266.048 363.659 266.505 364.176 271.467 362.436C272.959 361.913 279.631 357.323 280.668 355.9C281.7 354.484 281.975 348.805 282.535 346.788C283.957 341.666 285.874 335.959 288.044 331.149C285.574 329 280.699 327.399 281.361 323.235C282.425 321.911 288.966 323.157 290.46 322.029C292.514 320.477 294.449 314.309 295.405 311.929L302.66 293.702C300.055 293.8 293.085 294.136 291.911 291.12C292.072 288.536 296.074 288.651 298.07 288.483C300.218 288.303 302.434 288.212 304.59 288.085C306.395 284.802 307.082 278.535 312.652 280.709C313.901 280.37 313.679 280.227 314.728 280.542C315.746 281.506 315.908 282.944 316.145 284.378C326.48 281.137 335.62 276.988 345.577 272.87C346.176 272.622 348.698 271.556 349.103 271.106C355.33 264.183 361.486 257.985 371.449 257.731Z"></path><path fill="#FCD87B" d="M323.781 335.527C324.217 335.887 324.679 336.235 325.061 336.644L323.777 337.422C317.047 341.691 310.331 345.253 304.184 350.348C301.59 352.498 298.605 354.386 296.033 356.629C293.734 359.417 293.391 360.156 291.842 363.226C291.289 362.704 291.327 362.722 290.988 362.032L290.286 361.792C290.224 361.626 289.676 360.72 289.552 360.508C290.026 360.109 291.228 358.577 291.713 358.007C292.983 356.515 293.83 355.882 295.412 354.734C296.549 353.538 298.535 352.226 299.841 351.155C304.761 347.125 309.961 343.855 315.451 340.684C317.597 339.444 319.776 337.451 322.016 336.401L323.781 335.527Z"></path><path fill="#FCD87B" d="M382.239 314.88C381.696 312.386 381.84 310.078 381.072 307.854C380.007 304.771 374.412 301.909 374.034 299.048C374.473 298.192 374.466 298.416 375.541 297.878C376.894 300.559 379.644 302.667 381.609 304.93C382.432 305.878 383.176 307.249 383.805 308.358C383.499 309.756 383.315 310.263 383.797 311.633C384.085 312.448 384.285 313.931 384.026 314.775C383.427 316.724 381.948 318.395 381.301 320.374C380.621 322.452 380.658 327.336 379.714 329.006C379.334 329.809 378.826 330.984 378.415 331.733C378.28 330.792 378.217 330.756 377.634 329.967L378.298 328.903C378.798 322.612 378.85 320.124 382.239 314.88Z"></path><path fill="#FCD87B" d="M378.298 328.903L378.805 328.222L379.116 328.524C379.513 328.902 379.339 328.77 379.714 329.006C379.334 329.809 378.826 330.984 378.415 331.733C378.28 330.792 378.217 330.756 377.634 329.967L378.298 328.903Z"></path><path fill="#FCD87B" d="M338.01 293.806C339.458 293.526 350.153 281.557 349.902 278.691C349.54 277.854 348.449 277.471 347.67 276.809C347.311 275.09 349.724 272.593 351.168 272.047C352.126 272.017 352.395 272.333 353.243 272.896C350.317 275.541 348.993 276.563 353.285 278.309C352.046 281.774 351.141 283.932 348.4 286.525C345.941 288.852 343.946 292.221 340.865 293.761C340.266 294.061 339.794 294.459 339.315 294.915C339.075 294.781 338.51 294.341 338.258 294.157L338.01 293.806Z"></path><path fill="#FCD87B" d="M310.749 311.588C309.784 312.06 308.215 312.502 307.399 311.629C307.676 310.369 309.975 308.428 310.279 307.261C311.05 304.301 312.304 301.43 313.127 298.489C313.567 296.917 313.269 295.698 313.847 294.038C314.699 293.406 317.585 293.254 318.785 293.138C317.926 293.562 317.295 293.697 316.818 294.405C316.477 299.931 315.351 302.831 312.886 307.928C312.354 309.026 311.05 310.698 310.749 311.588Z"></path><path fill="#FCD87B" d="M333.337 302.718C333.969 303.006 334.704 302.712 335.376 302.56L335.865 302.725C335.963 304.143 332.942 306.139 332.066 307.161C331.164 308.213 331.157 310.208 329.978 311.123C327.391 313.984 321.162 319.361 317.617 320.756C316.924 320.319 316.938 320.372 316.515 319.684C322.459 315.256 325.635 313.868 329.048 306.941C329.302 306.424 332.564 303.726 333.337 302.718Z"></path><path fill="#FCD87B" d="M366.517 353.529L366.961 354.119C367.532 353.985 367.5 353.968 367.976 353.609C365.645 360.243 364.732 364.702 365.389 371.955C365.771 376.16 366.304 379.216 365.826 383.538C363.215 380.988 362.873 364.746 363.849 360.841C364.232 359.31 365.913 355.349 366.517 353.529Z"></path><path fill="#FC6893" d="M397.648 272.705C398.451 273.79 399.587 276.526 398.185 277.564C397.793 278.3 397.422 279.012 396.994 279.728C396.778 280.701 396.769 280.649 396.104 281.419C395.429 282.354 395.31 282.453 394.351 283.099L393.969 282.816C393.35 281.593 392.644 281.776 391.379 281.717C391.146 280.464 390.551 278.91 391.502 277.969L392.542 278.057L393.998 277.251C395.83 277.053 395.759 274.839 396.711 273.707C397.105 273.237 397.057 273.778 397.648 272.705Z"></path><path fill="#FDD797" d="M391.379 281.717C391.146 280.464 390.551 278.91 391.502 277.969L392.542 278.057L393.785 279.366C393.854 279.554 394.168 280.363 394.193 280.504C395.024 280.985 395.208 281.075 396.104 281.419C395.429 282.354 395.31 282.453 394.351 283.099L393.969 282.816C393.35 281.593 392.644 281.776 391.379 281.717Z"></path><path fill="#FD978A" d="M393.785 279.366C394.908 278.666 396.873 277.39 398.185 277.564C397.793 278.3 397.422 279.012 396.994 279.728C396.778 280.701 396.769 280.649 396.104 281.419C395.208 281.075 395.024 280.985 394.193 280.504C394.168 280.363 393.854 279.554 393.785 279.366Z"></path><path fill="#FC6893" d="M396.994 279.728C396.778 280.701 396.769 280.649 396.104 281.419C395.208 281.075 395.024 280.985 394.193 280.504C395.216 279.61 395.657 279.706 396.994 279.728Z"></path><path fill="#FCD87B" d="M303.997 328.046C307.92 325.585 312.522 321.18 316.515 319.684C316.938 320.372 316.924 320.319 317.617 320.756C314.825 322.457 312.898 324.437 310.349 326.259C309.269 327.03 305.445 329.434 304.285 329.986C304.407 328.788 304.516 328.888 303.997 328.046Z"></path><path fill="#FCD87B" d="M358.204 308.065L358.794 308.281C357.533 311.298 355.778 314.053 354.847 317.268C354.666 317.89 354.017 319.648 353.661 320.093C352.946 322.399 352.87 323.373 351.71 325.574C351.346 325.296 350.911 324.85 350.57 324.523C351.096 322.886 351.611 320.663 352.559 319.338C353.246 315.471 355.23 310.725 358.204 308.065Z"></path><path fill="#FDC47C" d="M302.305 329.25C302.792 329.838 302.836 329.786 303.101 330.493C302.447 330.872 302.246 330.815 301.516 330.816C299.593 333.318 297.748 339.116 296.941 339.923L296.74 340.104L296.326 339.678C296.129 338.677 296.174 338.183 295.19 337.766C295.595 336.596 296.111 335.541 296.628 334.418L296.938 333.337C297.971 329.742 300.779 331.177 302.305 329.25Z"></path><path fill="#FDA582" d="M296.628 334.418C297.779 336.162 296.249 337.083 296.519 339.241L296.941 339.923L296.74 340.104L296.326 339.678C296.129 338.677 296.174 338.183 295.19 337.766C295.595 336.596 296.111 335.541 296.628 334.418Z"></path><path fill="#FDC47C" d="M391.379 281.717C392.644 281.776 393.35 281.593 393.969 282.816L394.351 283.099C389.668 286.938 390.141 289.497 384.573 292.971C384.321 292.407 384.152 291.981 383.939 291.41C386.465 289.221 388.364 287.331 390.338 284.581C390.667 283.62 391.014 282.665 391.379 281.717Z"></path><path fill="#FDDDB3" d="M391.379 281.717C392.644 281.776 393.35 281.593 393.969 282.816C392.899 283.425 390.868 284.159 390.338 284.581C390.667 283.62 391.014 282.665 391.379 281.717Z"></path><path fill="#FDDDB3" d="M290.011 343.922C290.357 342.278 290.58 337.911 292.544 337.485L293.059 337.9C293.332 338.838 293.331 339.111 294.076 339.742C294.422 339.198 294.864 338.351 295.19 337.766C296.174 338.183 296.129 338.677 296.326 339.678L296.74 340.104C296.334 340.764 296.509 340.701 295.933 341.056C295.312 342.163 294.425 342.822 293.368 343.537L292.799 343.899C292.438 343.411 292.458 343.484 291.975 343.086C290.953 343.11 291.033 343.287 290.011 343.922Z"></path><path fill="#FD978A" d="M295.19 337.766C296.174 338.183 296.129 338.677 296.326 339.678L296.74 340.104C296.334 340.764 296.509 340.701 295.933 341.056C295.312 342.163 294.425 342.822 293.368 343.537C293.073 342.336 292.891 342.076 293.341 341.091C293.538 340.673 293.846 340.157 294.076 339.742C294.422 339.198 294.864 338.351 295.19 337.766Z"></path><path fill="#FDA582" d="M293.341 341.091L293.652 341.387C294.954 340.957 294.86 340.747 295.933 341.056C295.312 342.163 294.425 342.822 293.368 343.537C293.073 342.336 292.891 342.076 293.341 341.091Z"></path><path fill="#FCD87B" d="M371.346 339.208C372.292 339.627 372.246 339.594 372.778 340.487C371.616 347.234 370.374 347.678 368.176 353.154C368.094 352.487 367.909 352.278 367.578 351.688C368.905 349.517 370.728 341.744 371.346 339.208Z"></path><path fill="#FCD87B" d="M347.369 335.893C348.171 332.168 348.864 327.873 350.57 324.523C350.911 324.85 351.346 325.296 351.71 325.574C350.902 327.856 349.537 333.658 349.574 336.002C349.395 336.241 349.176 336.556 348.982 336.771L347.369 335.893Z"></path><path fill="#FDDDB3" d="M282.447 367.55C283.487 365.183 285.382 362.676 287.723 361.467L289.552 360.508C289.676 360.72 290.224 361.626 290.286 361.792C289.167 363.494 287.428 365.351 286.089 367.22C285.382 366.722 284.961 366.28 284.122 366.296C282.858 366.821 283.215 366.974 282.447 367.55Z"></path><path fill="#FDC47C" d="M391.396 265.5C392.733 267.173 396.01 270.12 396.722 271.23C395.821 272.118 395.841 272.237 394.415 272.103C393.449 270.773 391.353 268.029 390.077 267.121L389.896 266.666L391.396 265.5Z"></path><path fill="#FCD87B" d="M282.447 367.55C283.215 366.974 282.858 366.821 284.122 366.296C284.961 366.28 285.382 366.722 286.089 367.22C284.194 369.193 277.337 371.525 274.642 371.537C276.838 369.948 279.9 369.252 282.447 367.55Z"></path><path fill="#FCD87B" d="M329.531 286.596C330.595 286.488 331.961 286.247 332.829 286.751C332.759 287.358 332.87 287.081 332.36 287.536C331.183 287.872 325.923 290.448 324.454 291.16C323.713 290.696 323.625 290.682 322.835 290.396C324.837 289.382 327.988 288.033 329.531 286.596Z"></path><path fill="#FCD87B" d="M290.011 343.922C291.033 343.287 290.953 343.11 291.975 343.086C292.458 343.484 292.438 343.411 292.799 343.899L292.283 345.453C290.125 346.526 289.426 348.869 287.621 351.105C288.032 347.689 288.329 346.917 290.011 343.922Z"></path><path fill="#FD978A" d="M396.722 271.23C397.087 271.943 397.124 272.071 397.648 272.705C397.057 273.778 397.105 273.237 396.711 273.707C395.759 274.839 395.83 277.053 393.998 277.251L393.692 276.502C393.067 276.346 392.593 276.254 392.421 275.619C393.044 274.719 393.99 274.916 394.555 274.026C394.349 273.183 394.238 272.968 394.415 272.103C395.841 272.237 395.821 272.118 396.722 271.23Z"></path><path fill="#FCD87B" d="M371.449 257.731C375.943 257.087 379.569 257.886 383.74 259.476L382.828 260.861C382.835 260.862 380.381 259.963 380.201 259.899C376.44 258.552 375.422 258.007 371.449 257.731Z"></path><path fill="#FCD87B" d="M331.668 296.532C332.75 295.664 333.252 294.541 333.955 293.32L334.311 293.255C335.249 294.281 334.892 294.599 335.503 295.79L335.602 295.978C334.845 296.88 333.795 298.227 332.641 298.53C331.434 298.229 331.681 297.758 331.668 296.532Z"></path><path fill="#FCD87B" d="M312.652 280.709C313.901 280.37 313.679 280.227 314.728 280.542C315.746 281.506 315.908 282.944 316.145 284.378C314.868 284.806 314.598 284.948 313.426 284.453C312.451 283.287 312.626 282.24 312.652 280.709Z"></path><path fill="#FDD797" d="M323.781 335.527C325.43 334.578 328.314 333.389 330.151 332.557L331.503 333.72C329.635 334.478 326.734 335.655 325.061 336.644C324.679 336.235 324.217 335.887 323.781 335.527Z"></path><path fill="#FDD797" d="M344.005 341.99C343.945 341.744 343.885 341.498 343.825 341.252C345.278 339.229 346.452 338.215 347.369 335.893L348.982 336.771C347.731 337.989 346.842 341.153 345.51 341.894L345.272 341.876C344.571 341.828 344.593 341.74 344.005 341.99Z"></path><path fill="#FCD87B" d="M383.74 259.476C385.644 260.379 386.983 261.455 388.738 262.593C387.912 263.21 387.566 263.187 386.513 263.384L385.708 263.041C384.623 262.377 384.302 261.684 382.828 260.861L383.74 259.476Z"></path><path fill="#FCD87B" d="M337.042 327.511C338.738 327.564 339.512 327.489 340.804 328.599C340.997 329.442 341.03 329.022 340.548 329.882C339.731 330.524 339.039 330.564 338.016 330.776C337.581 330.208 337.515 329.829 337.303 329.154C337.42 327.97 337.586 328.225 337.042 327.511Z"></path><path fill="#FDD797" d="M379.128 296.436C379.521 293.767 381.874 292.877 383.939 291.41C384.152 291.981 384.321 292.407 384.573 292.971C382.426 294.056 380.786 295.616 379.128 296.436Z"></path><path fill="#FD978A" d="M388.738 262.593C389.999 263.45 390.624 264.168 391.396 265.5L389.896 266.666C388.578 265.16 388.058 264.632 386.513 263.384C387.566 263.187 387.912 263.21 388.738 262.593Z"></path><path fill="#FCD87B" d="M375.131 334.941L376.004 335.742C374.247 336.632 373.433 338.453 372.845 340.272L372.778 340.487C372.246 339.594 372.292 339.627 371.346 339.208C372.587 335.659 373.533 336.874 375.131 334.941Z"></path><path fill="#FDDDB3" d="M385.708 263.041L386.513 263.384C388.058 264.632 388.578 265.16 389.896 266.666L390.077 267.121C387.419 267.252 385.333 265.907 385.708 263.041Z"></path><path fill="#FCD87B" d="M377.634 329.967C378.217 330.756 378.28 330.792 378.415 331.733C377.549 333.415 377.142 334.252 376.004 335.742L375.131 334.941C375.935 333.268 376.769 331.609 377.634 329.967Z"></path><path fill="#FDD797" d="M358.204 308.065C358.953 307.41 359.167 306.112 360.304 305.053C361.439 304.676 361.04 304.772 362.367 305.108C361.362 306.843 360.518 307.316 358.794 308.281L358.204 308.065Z"></path><path fill="#FDDDB3" d="M337.303 329.154C337.515 329.829 337.581 330.208 338.016 330.776C336.677 331.14 335.863 331.302 334.62 331.947C334.101 331.427 333.895 331.382 333.239 331.058C333.636 330.776 336.275 329.725 337.303 329.154Z"></path><path fill="#FADC6B" d="M322.835 290.396C323.625 290.682 323.713 290.696 324.454 291.16C322.77 293.017 322.628 292.255 320.286 292.88C320.961 291.016 320.974 291.118 322.835 290.396Z"></path><path fill="#FCD87B" d="M333.239 331.058C333.895 331.382 334.101 331.427 334.62 331.947C333.515 332.638 332.702 333.184 331.503 333.72L330.151 332.557C331.116 332.051 332.246 331.538 333.239 331.058Z"></path><path fill="#FADC6B" d="M303.997 328.046C304.516 328.888 304.407 328.788 304.285 329.986L303.101 330.493C302.836 329.786 302.792 329.838 302.305 329.25C302.917 328.632 303.26 328.478 303.997 328.046Z"></path><path fill="#FADC6B" d="M367.578 351.688C367.909 352.278 368.094 352.487 368.176 353.154L367.976 353.609C367.5 353.968 367.532 353.985 366.961 354.119L366.517 353.529C366.875 352.691 367.057 352.452 367.578 351.688Z"></path><path fill="#F85690" d="M368.34 267.277C373.208 265.071 381.908 267.962 385.248 272.059C385.266 273.275 385.312 274.557 385.247 275.766C379.046 284.462 372.152 290.65 362.221 294.954C361.438 295.392 360.909 295.833 360.136 295.724C360.073 295.03 361.541 290.5 361.78 289.231C362.568 285.544 362.667 281.513 363.625 277.876C364.086 276.13 365.129 274.438 365.661 272.49C366.229 270.2 365.66 267.606 368.34 267.277Z"></path><path fill="#FCD87B" d="M365.661 272.49C365.931 272.966 366.54 274.08 366.858 274.462C364.535 279.715 364.865 282.769 363.873 288.315C363.542 290.165 362.41 293.382 362.221 294.954C361.438 295.392 360.909 295.833 360.136 295.724C360.073 295.03 361.541 290.5 361.78 289.231C362.568 285.544 362.667 281.513 363.625 277.876C364.086 276.13 365.129 274.438 365.661 272.49Z"></path><path fill="#FCD87B" d="M365.661 272.49C366.229 270.2 365.66 267.606 368.34 267.277C367.997 269.823 367.882 272.13 366.858 274.462C366.54 274.08 365.931 272.966 365.661 272.49Z"></path><path fill="#FDE4D9" d="M188.341 267.781L187.95 266.634C187.546 265.45 186.689 263.574 185.817 262.715C180.221 257.204 178.378 265.955 172.086 257.261C159.287 239.574 161.165 209.806 179.736 196.712C189.686 189.697 202.169 188.098 214.006 189.935C225.996 191.903 234.221 198.046 241.106 207.753C248.295 216.248 249.287 231.865 247.326 242.349C246.305 247.806 243.035 256.422 238.847 260.279C238.977 258.84 239.118 257.401 239.271 255.964C239.111 254.114 239.349 251.506 239.023 249.78L238.641 249.732C238.06 249.218 238.256 249.258 238.184 248.178L238.051 248.195L237.534 248.278C236.436 250.156 235.398 253.727 234.48 255.922C232.569 260.491 230.997 262.81 230.182 267.767C229.612 267.634 229.702 267.612 229.173 267.287C228.702 268.356 228.269 268.832 227.192 269.373C216.052 274.973 201.275 274.808 189.642 270.818C188.926 270.572 188.383 270.16 187.913 269.622C187.832 268.889 188.074 268.472 188.341 267.781Z"></path><path fill="#6BBBAE" d="M241.106 207.753C248.295 216.248 249.287 231.865 247.326 242.349C246.305 247.806 243.035 256.422 238.847 260.279C238.977 258.84 239.118 257.401 239.271 255.964C240.781 254.054 243.511 248.231 244.22 245.894C248.103 233.088 246.881 219.624 241.106 207.753Z"></path><path fill="#65C0AC" d="M188.341 267.781C191.516 268.384 194.655 270.838 199.219 271.379C209.253 272.569 220.154 272.22 228.579 266.217L229.173 267.287C228.702 268.356 228.269 268.832 227.192 269.373C216.052 274.973 201.275 274.808 189.642 270.818C188.926 270.572 188.383 270.16 187.913 269.622C187.832 268.889 188.074 268.472 188.341 267.781Z"></path><path fill="#F85690" d="M235.818 245.862C237.035 245.009 238.024 244.16 239.263 245.451C239.458 246.365 239.477 246.327 239.314 247.234C238.909 247.545 238.523 247.802 238.184 248.178L238.051 248.195L237.534 248.278C236.436 250.156 235.398 253.727 234.48 255.922C232.569 260.491 230.997 262.81 230.182 267.767C229.612 267.634 229.702 267.612 229.173 267.287L228.579 266.217C228.727 265.884 228.736 264.742 228.871 264.118C229.456 261.429 229.926 258.686 230.744 256.056L231.086 255.732C233.212 253.66 234.668 248.772 235.818 245.862Z"></path><path fill="#FC4D83" d="M239.314 247.234L239.023 249.78L238.641 249.732C238.06 249.218 238.256 249.258 238.184 248.178C238.523 247.802 238.909 247.545 239.314 247.234Z"></path><path fill="#F85690" d="M195.861 247.485C193.041 243.621 192.103 240.087 191.702 235.386C190.785 224.607 192.445 207.643 207.463 209.622C209.584 209.901 210.754 210.78 212.287 212.119C220.926 218.125 220.226 238.7 214.778 246.835C210.628 253.033 200.207 253.818 195.861 247.485Z"></path><path fill="#6BBBAE" d="M195.861 247.485C193.041 243.621 192.103 240.087 191.702 235.386C190.785 224.607 192.445 207.643 207.463 209.622C209.584 209.901 210.754 210.78 212.287 212.119C210.163 211.648 207.531 211.084 205.334 211.397C191.92 213.305 192.333 232.499 194.334 242.366C194.698 244.163 195.451 245.793 195.861 247.485Z"></path><path fill="#FDE4D9" d="M230.182 267.767C230.997 262.81 232.569 260.491 234.48 255.922C235.398 253.727 236.436 250.156 237.534 248.278L238.051 248.195C237.809 251.768 235.389 259.01 236.825 261.873C237.362 262.442 238.002 263.085 238.509 263.664L238.491 264.067C238.181 270.387 236.348 276.637 238.065 283.001C238.597 284.973 238.756 286.821 238.417 288.839C237.858 290.871 237.541 293.706 237.323 295.804C237.006 297.259 236.758 298.673 236.705 300.164C236.583 303.596 237.489 321.821 235.449 323.262C235.381 323.311 235.307 323.35 235.236 323.394C235.146 324.548 235.071 325.722 234.93 326.869C234.455 329.298 233.513 331.716 233.163 333.762C232.575 336.054 230.934 339.676 228.926 341.018C226.965 342.09 225.519 342.78 223.41 343.464C221.351 343.035 219.682 343.122 217.653 343.73C217.285 343.786 217.064 343.769 216.769 343.933L213.46 344.502C212.553 340.179 210.794 335.29 209.91 330.928C208.58 324.361 207.112 317.812 205.92 311.224C205.762 310.35 205.803 310.393 205.278 310.07L204.553 310.475C204.667 315.966 198.818 352.436 196.763 356.486C195.942 357.912 195.273 359.197 193.885 360.162C191.273 361.929 189.046 363.951 186.474 365.734C184.583 367.044 182.996 366.916 180.788 366.867C179.875 365.883 178.69 364.779 179.376 363.365C179.945 363.049 180.128 363.052 180.406 362.497C180.127 359.302 180.946 360.814 181.937 359.275L181.2 358.611C180.494 356.523 186.455 323.184 187.488 318.31L187.237 317.993C186.01 317.851 184.934 318.445 183.948 319.1C180.454 322.994 180.446 336.407 179.337 341.697C178.358 346.364 176.853 351.165 176.36 355.893C175.351 364.398 177.067 373.428 174.879 381.702C174.671 382.487 173.495 382.838 172.778 383.157C172.603 383.883 172.236 384.866 171.99 385.593L171.511 385.74C171.272 385.3 171.177 384.964 171.009 384.496L170.619 384.463C169.819 385.405 169.499 386.873 169.066 388.13C168.466 384.813 167.899 381.507 167.428 378.198C165.157 362.238 167.807 346.423 168.353 330.476C168.453 327.553 168.634 324.393 168.277 321.468C164.807 322.009 159.616 323.017 156.495 324.429C155.728 325.027 151.799 327.994 150.914 327.973C150.07 327.953 150.242 327.741 148.981 328.415C149.617 329.088 149.895 329.144 150.046 329.906C149.106 332.066 144.258 338.17 142.519 339.966C141.115 341.944 140.199 343.985 139.109 345.526C138.239 347.274 138.07 347.542 136.188 348.046C135.16 348.563 134.691 348.89 133.747 349.559C131.605 352.813 130.732 356.672 128.468 359.162L128.174 359.038C127.932 358.332 127.991 358.105 127.507 357.699C126.996 357.86 127.262 357.85 126.708 357.693L126.513 356.719C128.48 351.711 129.905 347.184 132.238 342.287C134.283 337.992 138.741 331.177 140.102 326.977L137.538 325.619L134.182 325.75C133.376 322.76 132.913 322.527 130.977 320.093C132.146 319.982 132.913 319.991 133.99 319.512L134.103 318.914C135.24 318.219 143.724 318.572 144.926 319.381C146.461 317.074 148.52 312.987 149.974 310.463C154.183 303.078 158.497 295.753 162.917 288.492C164.222 286.384 165.525 284.444 166.915 282.407C168.469 280.129 172.012 276.558 172.487 274.002L172.568 273.542C173.396 269.014 176.92 274.753 178.291 264.013C179.356 263.897 182.165 263.518 183.021 263.828C187.884 266.282 183.511 268.53 187.236 271.89C187.143 276.665 186.327 278.762 185.782 283.183L182.135 311.508C182.013 312.408 181.906 312.566 182.348 313.053L182.67 313.145C184.85 312.919 187.026 312.664 189.198 312.379C189.882 310.355 190.542 309.59 190.975 307.332C191.844 306.685 193.159 305.521 194.178 305.484L194.806 304.061C193.965 303.14 193.327 303.228 192.683 302.216C192.587 301.385 193.143 300.541 193.531 299.753C195.703 294.25 199.08 288.781 201.841 283.577C202.364 282.591 203.008 279.654 203.493 278.303C204.592 277.577 205.347 277.269 206.533 276.743C209.091 275.409 212.056 277.827 212.746 280.135C215.626 289.755 216.577 300.003 219.61 309.682C220.177 311.493 220.619 314.563 221.471 316.013C222.327 311.989 222.136 307.281 222.95 303.316C225.294 291.884 226.593 278.849 230.182 267.767Z"></path><path fill="#FCD87B" d="M172.778 383.157C172.555 381.047 173.624 377.863 173.653 375.632C173.746 368.374 173.469 361.359 174.367 354.069C174.767 350.819 176.302 346.844 177.03 342.684C178.216 335.917 177.956 326.086 181.276 319.932C181.66 319.221 183.183 319.113 183.948 319.1C180.454 322.994 180.446 336.407 179.337 341.697C178.358 346.364 176.853 351.165 176.36 355.893C175.351 364.398 177.067 373.428 174.879 381.702C174.671 382.487 173.495 382.838 172.778 383.157Z"></path><path fill="#FCD87B" d="M183.021 263.828C187.884 266.282 183.511 268.53 187.236 271.89C187.143 276.665 186.327 278.762 185.782 283.183L182.135 311.508C182.013 312.408 181.906 312.566 182.348 313.053L182.67 313.145C181.864 313.602 180.434 314.002 179.635 313.393C179.677 311.305 181.234 305.287 181.596 302.75C182.356 297.917 182.365 292.874 183.026 288.043C183.762 282.659 184.663 278.268 184.683 272.798C182.829 270 183.089 267.073 183.021 263.828Z"></path><path fill="#FCD87B" d="M236.825 261.873C237.362 262.442 238.002 263.085 238.509 263.664L238.491 264.067C238.181 270.387 236.348 276.637 238.065 283.001C238.597 284.973 238.756 286.821 238.417 288.839C237.858 290.871 237.541 293.706 237.323 295.804C237.006 297.259 236.758 298.673 236.705 300.164C236.583 303.596 237.489 321.821 235.449 323.262C235.381 323.311 235.307 323.35 235.236 323.394L234.435 321.726C235.497 317.449 234.499 312.126 234.985 307.624C235.175 305.863 234.676 303.253 234.815 301.329C235.127 296.989 236.269 292.801 236.562 288.461C236.787 284.17 235.295 279.88 235.552 275.422C235.835 270.506 236.682 266.921 236.825 261.873Z"></path><path fill="#FCD87B" d="M206.533 276.743C209.091 275.409 212.056 277.827 212.746 280.135C215.626 289.755 216.577 300.003 219.61 309.682C220.177 311.493 220.619 314.563 221.471 316.013C221.408 317.593 221.005 323.226 220.106 324.321L219.772 324.242C218.864 322.868 219.466 320.06 219.308 318.447C219.133 316.656 218.901 314.754 218.465 313.005C216.332 304.449 214.136 295.916 212.54 287.237C211.561 281.913 211.401 279.641 206.533 276.743Z"></path><path fill="#FCD87B" d="M195.312 356.196C196.481 353.351 197.07 349.022 197.703 345.914C199.646 336.379 200.269 326.654 202.285 317.153C202.665 315.359 202.648 313.369 203.092 311.322C203.702 310.583 203.496 310.815 204.553 310.475C204.667 315.966 198.818 352.436 196.763 356.486L195.312 356.196Z"></path><path fill="#FDC47C" d="M147.093 327.523L147.647 327.193C148.371 327.581 148.474 327.787 148.981 328.415C149.617 329.088 149.895 329.144 150.046 329.906C149.106 332.066 144.258 338.17 142.519 339.966L141.992 339.179L142.379 339.063C143.857 335.267 147.783 332.438 148.199 329.569C147.628 329.919 147.918 329.878 147.332 329.884C147.22 329.089 147.161 328.321 147.093 327.523Z"></path><path fill="#FDC47C" d="M127.507 357.699C129.727 355.397 128.82 350.203 133.747 349.559C131.605 352.813 130.732 356.672 128.468 359.162L128.174 359.038C127.932 358.332 127.991 358.105 127.507 357.699Z"></path><path fill="#FDDDB3" d="M147.093 327.523C146.958 327.552 146.653 327.507 146.496 327.493L146.267 327.139C146.892 326.071 150.156 326.825 151.473 326.391C153.688 325.66 153.902 322.735 156.495 324.429C155.728 325.027 151.799 327.994 150.914 327.973C150.07 327.953 150.242 327.741 148.981 328.415C148.474 327.787 148.371 327.581 147.647 327.193L147.093 327.523Z"></path><path fill="#FCD87B" d="M233.458 325.249C234.563 325.662 234.667 325.629 234.93 326.869C234.455 329.298 233.513 331.716 233.163 333.762C232.862 333.687 232.064 333.363 231.732 333.239C232.288 330.572 232.864 327.909 233.458 325.249Z"></path><path fill="#FADC6B" d="M231.732 333.239C232.064 333.363 232.862 333.687 233.163 333.762C232.575 336.054 230.934 339.676 228.926 341.018C228.336 338.951 230.31 337.777 231.084 335.754C231.465 334.759 231.541 334.269 231.732 333.239Z"></path><path fill="#FCD87B" d="M141.992 339.179L142.519 339.966C141.115 341.944 140.199 343.985 139.109 345.526C138.17 345.04 138.157 344.976 138.138 344.024C139.053 341.94 140.119 340.516 141.992 339.179Z"></path><path fill="#FC4D83" d="M133.99 319.512L134.103 318.914C135.24 318.219 143.724 318.572 144.926 319.381C141.193 319.69 137.552 319.343 133.99 319.512Z"></path><path fill="#FC6893" d="M190.975 307.332C191.844 306.685 193.159 305.521 194.178 305.484C195.048 305.726 195.546 305.633 196.448 305.552C195.744 306.451 193.468 307.768 192.295 307.851C191.674 307.895 191.615 307.703 190.975 307.332Z"></path><path fill="#FBBEBD" d="M194.806 304.061C193.965 303.14 193.327 303.228 192.683 302.216C192.587 301.385 193.143 300.541 193.531 299.753L193.619 299.938C194.673 302.121 195.054 301.292 194.806 304.061Z"></path><path fill="#FDD797" d="M138.138 344.024C138.157 344.976 138.17 345.04 139.109 345.526C138.239 347.274 138.07 347.542 136.188 348.046C136.329 346.825 137.229 344.822 138.138 344.024Z"></path><path fill="#FADC6B" d="M193.885 360.162C193.809 358.414 194.346 357.66 195.312 356.196L196.763 356.486C195.942 357.912 195.273 359.197 193.885 360.162Z"></path><path fill="#FDD797" d="M234.435 321.726L235.236 323.394C235.146 324.548 235.071 325.722 234.93 326.869C234.667 325.629 234.563 325.662 233.458 325.249C233.588 324.023 234.038 322.902 234.435 321.726Z"></path><path fill="#F85690" d="M167.886 301.817C168.269 300.393 168.622 298.961 168.944 297.522C169.878 303.142 169.592 309.637 169.217 315.318C166.003 316.199 162.744 316.905 159.454 317.431C158.646 316.897 158.726 316.249 158.671 315.364L157.557 314.744C157.199 314.582 156.901 314.182 156.608 313.87C157.073 313.39 157.663 313.017 158.214 312.628L157.441 310.744C158.672 309.665 158.903 308.916 160.347 309.869L161.721 309.263C160.751 307.25 160.983 306.464 162.347 304.769C163.485 304.188 163.571 303.588 164.778 302.701C165.676 302.685 165.234 302.568 166.064 303.337C166.062 302.389 165.995 301.694 166.271 300.794C167.552 301.251 166.22 301.181 167.886 301.817Z"></path><path fill="#FD939D" d="M162.347 304.769C163.485 304.188 163.571 303.588 164.778 302.701C165.676 302.685 165.234 302.568 166.064 303.337L164.545 305.913L166.233 306.121C165.097 308.239 164.643 307.739 163.395 309.228C162.538 310.25 161.881 313.007 160.64 313.798C160.098 313.731 159.94 313.699 159.414 313.552C158.904 314.055 158.852 314.648 158.671 315.364L157.557 314.744C157.199 314.582 156.901 314.182 156.608 313.87C157.073 313.39 157.663 313.017 158.214 312.628L157.441 310.744C158.672 309.665 158.903 308.916 160.347 309.869L161.721 309.263C160.751 307.25 160.983 306.464 162.347 304.769Z"></path><path fill="#FDDDB3" d="M162.347 304.769C163.485 304.188 163.571 303.588 164.778 302.701C165.676 302.685 165.234 302.568 166.064 303.337L164.545 305.913L163.28 307.545C162.839 308.615 162.78 308.648 161.721 309.263C160.751 307.25 160.983 306.464 162.347 304.769Z"></path><path fill="#FDD797" d="M162.347 304.769C163.129 305.65 163.114 306.323 163.28 307.545C162.839 308.615 162.78 308.648 161.721 309.263C160.751 307.25 160.983 306.464 162.347 304.769Z"></path><path fill="#FDD797" d="M157.441 310.744C158.672 309.665 158.903 308.916 160.347 309.869C159.725 311.015 160.5 311.18 159.837 312.204C159.073 312.537 159.089 312.562 158.214 312.628L157.441 310.744Z"></path><path fill="#FDC47C" d="M166.064 303.337C166.062 302.389 165.995 301.694 166.271 300.794C167.552 301.251 166.22 301.181 167.886 301.817C168.29 304.271 167.707 304.243 166.233 306.121L164.545 305.913L166.064 303.337Z"></path><path fill="#FDDDB3" d="M152.555 316.204C152.778 314.517 156.066 311.751 157.441 310.744L158.214 312.628C157.663 313.017 157.073 313.39 156.608 313.87C156.901 314.182 157.199 314.582 157.557 314.744L158.671 315.364C158.726 316.249 158.646 316.897 159.454 317.431C159.221 317.479 157.904 318.069 157.375 318.242C156.551 317.877 156.817 318.009 156.282 317.04C156.12 315.78 156.2 316.197 155.339 315.069C153.937 315.914 153.872 316.022 153.706 317.61L153.575 318.759C152.777 319.205 152.719 319.189 152.052 319.048L151.785 318.502C151.807 317.381 151.984 317.225 152.555 316.204Z"></path><path fill="#FCD87B" d="M157.557 314.744L158.671 315.364C158.726 316.249 158.646 316.897 159.454 317.431C159.221 317.479 157.904 318.069 157.375 318.242C156.551 317.877 156.817 318.009 156.282 317.04C156.566 315.891 156.702 315.483 157.557 314.744Z"></path><path fill="#FDA582" d="M155.339 315.069C154.922 314.528 155.051 314.742 154.844 314.072C155.478 313.662 155.68 313.838 156.608 313.87C156.901 314.182 157.199 314.582 157.557 314.744C156.702 315.483 156.566 315.891 156.282 317.04C156.12 315.78 156.2 316.197 155.339 315.069Z"></path><path fill="#FDC47C" d="M152.555 316.204C153.764 317.045 153.551 317.297 153.575 318.759C152.777 319.205 152.719 319.189 152.052 319.048L151.785 318.502C151.807 317.381 151.984 317.225 152.555 316.204Z"></path><path fill="#FCD87B" d="M204.287 306.313C205.584 306.927 205.248 308.04 204.955 309.19C204.382 308.831 204.379 308.78 203.927 308.262C203.7 307.417 203.935 307.126 204.287 306.313Z"></path><path fill="#FDE4D9" d="M255.29 191.377C263.69 190.848 274.851 191.396 283.579 191.294C292.402 191.191 302.88 190.957 311.56 191.875C318.073 192.564 323.002 196.259 326.834 201.481C330.07 204.664 330.761 210.612 330.861 214.76C331.03 221.701 328.997 228.224 322.707 231.808C321.787 232.332 320.02 233.247 319.247 233.884C322.573 235.695 323.697 236.733 326.131 239.663C331.252 244.178 329.971 256.099 330.853 262.445C331.144 264.54 331.866 266.711 332.13 268.748C332.502 269.811 332.662 270.37 332.894 271.472C333.205 272.416 333.333 272.268 333.054 272.981C330.237 273.542 311.021 273.236 306.81 272.961C306.605 272.947 306.017 271.911 305.839 271.597C305.358 271.482 304.836 271.158 304.601 270.686C301.609 264.684 303.945 251.173 299.541 246.646L297.165 246.204C293.26 245.457 287.757 245.892 283.661 245.655C283.974 249.556 283.752 254.176 283.817 258.139C283.843 259.707 283.917 264.157 283.719 265.464L283.364 265.785C282.568 265.34 282.47 264.764 281.926 263.838C281.253 263.018 280.641 261.658 279.874 260.966C275.862 257.343 271.419 255.281 266.123 254.861C263.744 256.316 261.79 258.978 259.784 260.963C258.245 262.486 256.962 263.491 255.254 264.815C255.342 240.462 254.923 215.673 255.29 191.377Z"></path><path fill="#65C0AC" d="M326.834 201.481C330.07 204.664 330.761 210.612 330.861 214.76C331.03 221.701 328.997 228.224 322.707 231.808C321.787 232.332 320.02 233.247 319.247 233.884L316.705 233.282L315.429 232.328C315.8 232.224 316.169 232.116 316.538 232.003C330.72 227.636 330.691 213.359 326.834 201.481Z"></path><path fill="#65C0AC" d="M282.043 244.091C285.009 244.155 288.014 244.081 290.982 244.123C294.613 244.175 296.777 243.994 299.541 246.646L297.165 246.204C293.26 245.457 287.757 245.892 283.661 245.655C283.974 249.556 283.752 254.176 283.817 258.139C283.843 259.707 283.917 264.157 283.719 265.464L283.364 265.785C282.568 265.34 282.47 264.764 281.926 263.838C281.745 262.604 281.932 258.786 281.951 257.329L282.043 244.091Z"></path><path fill="#65C0AC" d="M305.839 271.597C306.816 271.415 313.079 271.403 314.387 271.424C319.842 271.513 326.128 271.172 331.509 271.591L332.894 271.472C333.205 272.416 333.333 272.268 333.054 272.981C330.237 273.542 311.021 273.236 306.81 272.961C306.605 272.947 306.017 271.911 305.839 271.597Z"></path><path fill="#65C0AC" d="M326.131 239.663C331.252 244.178 329.971 256.099 330.853 262.445C331.144 264.54 331.866 266.711 332.13 268.748C331.854 268.821 332.035 268.792 331.582 268.736C331.151 267.718 331.1 267.489 330.414 266.655C328.5 263.173 328.769 252.14 328.188 247.843C327.709 244.305 327.324 243.054 326.131 239.663Z"></path><path fill="#6BBBAE" d="M330.414 266.655C331.1 267.489 331.151 267.718 331.582 268.736C332.035 268.792 331.854 268.821 332.13 268.748C332.502 269.811 332.662 270.37 332.894 271.472L331.509 271.591C330.946 269.727 330.74 268.591 330.414 266.655Z"></path><path fill="#6BBBAE" d="M316.705 233.282C315.897 233.155 315.273 233.029 314.476 232.847L314.489 232.626L315.429 232.328L316.705 233.282Z"></path><path fill="#F85690" d="M282.006 211.794C286.548 211.784 298.588 210.549 301.253 214.365C304.67 219.457 302.513 225.124 296.195 225.73C292.033 226.13 287.871 225.983 283.694 225.888L282.5 225.946L282.124 225.603C281.786 223.231 281.995 214.689 282.006 211.794Z"></path><path fill="#65C0AC" d="M282.006 211.794C286.548 211.784 298.588 210.549 301.253 214.365C293.553 213.165 291.04 213.677 283.585 213.464C283.906 217.075 283.781 222.183 283.694 225.888L282.5 225.946L282.124 225.603C281.786 223.231 281.995 214.689 282.006 211.794Z"></path><path fill="#FDE4D9" d="M96.5035 233.622C87.9035 228.144 85.8048 221.094 87.3218 211.386C90.2999 190.99 113.359 188.384 129.989 190.819C139.456 192.205 147.406 196.248 153.081 204.066C155.714 206.632 156.913 211.536 157.084 215.075L157.177 217.583C157.154 217.982 157.085 218.348 157.026 218.746C156.882 218.864 156.739 218.983 156.595 219.101C150.817 219.177 137.814 219.471 132.657 219.061C131.804 218.505 132.016 218.524 131.489 217.456C129.168 217.001 131.023 214.647 128.447 211.201C124.842 210.552 120.442 209.642 117.184 211.903C115.354 213.172 115.313 214.179 114.716 216.112C118.685 218.492 121.192 218.904 125.602 220.228C133.674 222.652 143.732 225.049 150.604 230.009C152.09 231.082 153.958 233.584 155.091 235.012C159.189 239.391 159.862 249.096 157.361 254.24C156.879 255.91 156.167 259.301 154.723 260.16C153.807 260.12 154.256 260.229 153.385 259.64C139.319 255.048 127.763 253.602 113.924 259.871C108.192 262.468 102.846 265.212 97.8658 269.107C97.0346 268.557 96.3603 268.047 95.6441 267.365C87.9447 260.03 83.6898 253.984 83.207 243.277C85.9267 243.271 107.771 243.036 108.655 243.516L108.981 244.682C111.437 246.013 111.092 248.085 111.392 250.772C114.914 256.197 135.32 255.06 130.044 245.674C129.064 245.51 123.283 243.71 122.035 243.302C114.952 240.983 102.157 238.341 96.5035 233.622Z"></path><path fill="#65C0AC" d="M155.091 235.012C159.189 239.391 159.862 249.096 157.361 254.24C156.879 255.91 156.167 259.301 154.723 260.16C153.807 260.12 154.256 260.229 153.385 259.64C153.866 258.053 154.108 257.174 154.849 255.687C154.88 255.246 156.046 251.427 156.206 250.631C157.385 244.789 156.974 240.527 155.091 235.012Z"></path><path fill="#6BBBAE" d="M154.849 255.687L155.373 255.8L155.606 255.043C156.057 255.578 155.966 255.663 156.472 255.849L156.015 255.496L156.445 255.944C156.512 255.04 156.565 255.01 156.891 254.198L157.361 254.24C156.879 255.91 156.167 259.301 154.723 260.16C153.807 260.12 154.256 260.229 153.385 259.64C153.866 258.053 154.108 257.174 154.849 255.687Z"></path><path fill="#65C0AC" d="M131.489 217.456C136.935 217.473 142.381 217.452 147.827 217.392C149.387 217.388 154.185 217.29 155.508 217.603C156.213 217.79 156.467 217.696 157.177 217.583C157.154 217.982 157.085 218.348 157.026 218.746C156.882 218.864 156.739 218.983 156.595 219.101C150.817 219.177 137.814 219.471 132.657 219.061C131.804 218.505 132.016 218.524 131.489 217.456Z"></path><path fill="#6BBBAE" d="M96.5035 233.622C100.224 235.217 104.01 236.653 107.853 237.925C112.202 239.345 127.546 242.746 130.044 245.674C129.064 245.51 123.283 243.71 122.035 243.302C114.952 240.983 102.157 238.341 96.5035 233.622Z"></path><path fill="#6BBBAE" d="M114.716 216.112C108.08 209.715 124.639 205.673 128.447 211.201C124.842 210.552 120.442 209.642 117.184 211.903C115.354 213.172 115.313 214.179 114.716 216.112Z"></path><path fill="#65C0AC" d="M153.081 204.066C155.714 206.632 156.913 211.536 157.084 215.075C156.533 214.759 156.096 214.303 155.626 213.869L155.37 214.449C155.044 210.172 154.697 207.975 153.081 204.066Z"></path><path fill="#65C0AC" d="M108.981 244.682C111.437 246.013 111.092 248.085 111.392 250.772C109.296 248.475 109.143 247.697 108.981 244.682Z"></path><path fill="#6BBBAE" d="M155.37 214.449L155.626 213.869C156.096 214.303 156.533 214.759 157.084 215.075L157.177 217.583C156.467 217.696 156.213 217.79 155.508 217.603L155.37 214.449Z"></path><path fill="#FDE4D9" d="M217.261 126.218C225.468 126.396 233.777 125.888 241.978 126.31C242.624 126.343 243.1 127.214 243.471 127.692C245.943 130.686 248.111 144.425 249.377 148.789C249.821 150.32 250.247 153.377 251.099 154.763C252.87 145.66 255.841 135.457 257.938 126.237L273.195 126.194C276.009 126.188 280.145 126.061 282.815 126.398C283.528 126.916 283.247 126.576 283.528 127.565C283.948 127.768 285.019 128.114 285.031 128.655C285.176 135.288 285.322 142.126 285.16 148.762C284.869 160.656 285.633 173 285.131 184.846C282.372 184.717 269.613 185.448 268.241 184.145C267.963 183.881 267.851 183.481 267.727 183.133C267.527 183.091 267.058 183.004 266.896 182.915C266.867 182.899 266.417 182.553 266.404 182.469C265.681 177.707 266.964 160.687 265.938 157C265.379 158.474 265.041 160.12 264.654 161.653C262.712 169.354 260.356 176.966 258.385 184.656C255.527 184.759 252.592 184.923 249.734 184.887C247.697 184.861 246.639 184.894 245.242 183.322C245.176 183.254 245.112 183.185 245.045 183.119C242.087 180.211 238.678 160.775 236.167 155.461C235.927 158.117 236.215 161.981 236.224 164.826L236.229 184.827C233.37 184.773 221.344 185.088 219.571 184.397C219.279 183.909 219.345 184.092 219.289 183.49L218.923 183.152C218.266 183.021 217.789 183.011 217.316 182.558C217.081 180.74 217.211 177.74 217.224 175.819L217.243 165.142L217.261 126.218Z"></path><path fill="#C5E3EB" d="M283.528 127.565C283.948 127.768 285.019 128.114 285.031 128.655C285.176 135.288 285.322 142.126 285.16 148.762C284.869 160.656 285.633 173 285.131 184.846C282.372 184.717 269.613 185.448 268.241 184.145C267.963 183.881 267.851 183.481 267.727 183.133C270.611 182.676 280.41 182.895 283.463 183.021C283.301 180.267 283.313 177.085 283.38 174.323C283.759 158.855 282.962 142.993 283.528 127.565Z"></path><defs><linearGradient id="gradient_6" gradientUnits="userSpaceOnUse" x1="246.35657" y1="167.1813" x2="265.65167" y2="167.30731"><stop offset="0" stop-color="#C9E3E0"></stop><stop offset="1" stop-color="#B7E4F4"></stop></linearGradient></defs><path fill="url(#gradient_6)" d="M265.33 150.225C266.064 150.467 266.026 150.432 266.366 151.264C266.24 153.14 266.142 155.142 265.938 157C265.379 158.474 265.041 160.12 264.654 161.653C262.712 169.354 260.356 176.966 258.385 184.656C255.527 184.759 252.592 184.923 249.734 184.887C247.697 184.861 246.639 184.894 245.242 183.322C246.478 182.343 254.458 182.973 256.411 183.009C258.6 176.265 260.513 169.207 262.272 162.344C263.271 158.448 264.68 154.154 265.33 150.225Z"></path><path fill="#C5E3EB" d="M234.241 146.555C234.915 148.394 235.757 153.341 236.167 155.461C235.927 158.117 236.215 161.981 236.224 164.826L236.229 184.827C233.37 184.773 221.344 185.088 219.571 184.397C219.279 183.909 219.345 184.092 219.289 183.49C220.191 183.486 221.979 183.056 223.326 183.017C227.004 182.91 230.641 182.958 234.316 182.991C234.537 179.971 234.433 176.791 234.445 173.747C234.501 168.227 234.475 162.705 234.367 157.185C234.305 154.062 233.952 149.469 234.241 146.555Z"></path><path fill="#C5E3EB" d="M243.471 127.692C245.943 130.686 248.111 144.425 249.377 148.789C249.821 150.32 250.247 153.377 251.099 154.763C251.197 156.592 250.913 158.295 250.477 160.059C249.27 151.53 246.75 143.44 244.807 135.074C244.209 132.5 243.664 130.361 243.471 127.692Z"></path><path fill="#D5E1E2" d="M266.657 145.75C266.632 146.825 266.586 150.423 266.366 151.264C266.026 150.432 266.064 150.467 265.33 150.225C265.512 148.63 266.102 147.257 266.657 145.75Z"></path><path fill="#FDE4D9" d="M125.944 126.207C128.863 126.203 150.129 125.939 151.155 126.546L151.365 127.711C152.315 128.022 152.462 127.887 152.951 128.529C153.192 130.75 153.09 134.281 153.087 136.624L153.069 150.202C153.059 161.368 153.366 173.736 153.054 184.808C150.804 184.782 137.382 185.024 136.249 184.451L135.937 183.975C135.864 183.656 135.758 183.498 135.614 183.196C135.386 183.124 134.904 183.015 134.689 182.872C133.544 182.107 134.537 160.285 133.915 157.187C133.27 158.606 132.798 160.891 132.405 162.461C130.536 169.925 128.017 177.434 126.268 184.914L125.84 184.886C123.217 184.723 120.692 184.925 118.08 184.909C115.793 184.894 114.295 185.129 113.042 183.014C113.002 183.008 112.96 183.012 112.922 182.996C110.366 181.951 106.579 159.492 104.07 155.443C103.852 164.991 104.181 175.143 104.037 184.812C101.541 184.773 89.005 184.997 87.5757 184.447L87.1778 184.032C86.6115 183.031 86.6982 183.305 85.5438 182.639C84.7735 181.629 85.1934 131.823 85.1931 126.223C93.5775 126.19 101.962 126.206 110.346 126.272L111.936 128.443C112.957 130.204 117.932 149.633 117.974 151.79C118.196 152.597 118.532 154.074 118.937 154.735L125.944 126.207Z"></path><path fill="#C5E3EB" d="M151.365 127.711C152.315 128.022 152.462 127.887 152.951 128.529C153.192 130.75 153.09 134.281 153.087 136.624L153.069 150.202C153.059 161.368 153.366 173.736 153.054 184.808C150.804 184.782 137.382 185.024 136.249 184.451L135.937 183.975L135.978 183.288C136.982 182.717 149.287 182.914 151.389 182.887C151.096 169.014 151.426 155.048 151.285 141.167C151.24 136.708 151.251 132.165 151.365 127.711Z"></path><path fill="#C5E3EB" d="M133.506 149.365L134.359 150.423C134.169 152.637 133.951 154.972 133.915 157.187C133.27 158.606 132.798 160.891 132.405 162.461C130.536 169.925 128.017 177.434 126.268 184.914L125.84 184.886C123.217 184.723 120.692 184.925 118.08 184.909C115.793 184.894 114.295 185.129 113.042 183.014C116.574 182.764 120.608 183.092 124.304 182.953C124.892 180.647 125.911 178.234 126.416 175.987C128.371 167.282 132.011 158.098 133.506 149.365Z"></path><path fill="#C5E3EB" d="M102.11 150.692C102.314 150.143 102.221 150.309 102.561 149.862L103.155 150.229C103.437 151.927 103.956 153.799 104.07 155.443C103.852 164.991 104.181 175.143 104.037 184.812C101.541 184.773 89.005 184.997 87.5757 184.447L87.1778 184.032L87.4353 183.356C88.7869 182.713 99.7737 182.956 102.329 182.911C102.288 175.852 102.297 168.792 102.357 161.732C102.353 158.507 102.462 153.809 102.11 150.692Z"></path><path fill="#D5E1E2" d="M111.936 128.443C112.957 130.204 117.932 149.633 117.974 151.79L117.594 153.01L116.853 152.178C115.462 148.675 111.985 132.217 111.936 128.443Z"></path><path fill="#C5E3EB" d="M116.853 152.178L117.594 153.01L117.974 151.79C118.196 152.597 118.532 154.074 118.937 154.735C119.094 156.741 118.662 158.295 118.146 160.208C117.587 157.181 117.673 155.303 116.853 152.178Z"></path><path fill="#D5E1E2" d="M133.506 149.365C133.557 148.097 133.751 146.949 134.017 145.711L134.696 145.527L134.576 145.435C134.936 146.856 134.539 148.936 134.359 150.423L133.506 149.365Z"></path><path fill="#C5E3EB" d="M102.21 146.039C102.738 147.759 102.896 148.45 103.155 150.229L102.561 149.862C102.221 150.309 102.314 150.143 102.11 150.692C101.973 149.154 102.119 147.585 102.21 146.039Z"></path><path fill="#FDE4D9" d="M88.501 281.475C87.8588 280.585 86.3609 278.257 86.916 277.385C89.396 273.203 98.89 271.136 102.133 268.808C115.057 259.53 129.593 254.532 145.227 260.184C147.324 260.942 150.691 261.308 153.176 262.096C168.511 265.804 163.064 281.799 155.854 290.483C155.306 291.326 155.049 291.406 155.024 292.246C155.525 292.731 155.582 292.78 156.168 293.155C155.381 295.375 150.328 293.489 148.857 300.864C146.888 302.752 143.704 304.806 142.454 307.028C141.886 308.125 141.734 308.582 140.817 309.43C139.938 310.008 138.654 310.794 137.857 311.421C137.133 312.837 136.195 313.603 134.897 314.509C134.342 315.904 132.865 317.742 131.571 318.468L131.027 318.465C130.703 317.864 130.825 317.466 130.894 316.779C130.29 317.387 129.024 318.862 128.306 318.986L128.111 318.787L127.219 317.525L126.531 318.704C126.515 320.495 125.774 319.148 126.197 320.621L127.057 321.317C127.003 322.551 126.997 322.384 126.165 323.481C125.979 325.941 124.168 325.996 122.106 325.612C121.656 325.141 121.685 325.168 121.437 324.562C119.673 326.121 118.327 327.385 116.795 329.187C117.499 329.356 119.04 329.495 119.506 329.783C119.202 331.063 112.271 335.291 112.072 337.392C113.53 337.625 113.837 336.851 114.491 337.444C113.246 340.105 109.587 341.771 107.661 344.104C107.289 344.862 107.198 344.682 106.171 345.127C105.909 345.847 105.651 346.356 104.943 346.793C103.364 348.201 102.391 349.185 100.383 349.951C99.0252 354.359 97.9132 354.167 94.8432 357.392C94.2719 357.992 93.8312 360.427 93.2002 360.953C92.8518 361.244 92.2187 360.973 91.5692 361.345C90.4378 362.847 86.9916 365.995 85.2445 366.605C84.6485 366.491 84.6841 366.504 84.1696 366.181C83.2587 366.71 83.2431 366.815 82.3325 366.532C81.2287 365.566 80.9988 364.452 80.6724 363.032C80.6354 362.492 80.4521 361.829 80.3293 361.286C81.2608 358.928 82.2066 350.915 82.6472 348.081C82.701 347.734 82.6786 347.837 82.3936 347.52L80.9289 347.721C83.7245 343.191 85.5527 337.492 87.7353 332.479C91.7404 323.278 95.6871 314.272 99.1993 304.858C100.843 300.843 101.809 296.619 103.303 292.548C105.078 287.709 107.714 288.319 111.974 288.823C114.139 288.923 114.68 289.735 115.862 291.487C116.129 296.943 114.523 301.62 113.47 306.851C113.248 307.958 111.999 313.248 111.997 313.945C123.276 304.972 144.389 282.699 148.525 269.296C147.896 268.849 146.93 268.299 146.248 267.881L145.441 268.62L145.548 268.782L146.3 269.225L146.415 269.686C144.845 271.405 139.546 273.982 137.21 274.402C132.166 275.31 119.142 276.488 114.522 274.419C114.023 273.756 114.136 274.115 114.13 273.317L113.845 272.864C112.847 273.829 111.802 275.292 110.765 276.162C108.455 278.101 103.847 281.06 100.916 281.448C97.8675 281.853 95.7963 281.658 92.8573 282.62L88.501 281.475Z"></path><path fill="#FDE4D9" d="M116.498 272.458C124.07 267.436 136.884 264.947 145.441 268.62L145.548 268.782L146.3 269.225L146.415 269.686C144.845 271.405 139.546 273.982 137.21 274.402C132.166 275.31 119.142 276.488 114.522 274.419C114.023 273.756 114.136 274.115 114.13 273.317C115.28 273.074 115.463 273.012 116.498 272.458Z"></path><path fill="#6BBBAE" d="M145.548 268.782L146.3 269.225L146.415 269.686C144.845 271.405 139.546 273.982 137.21 274.402C132.166 275.31 119.142 276.488 114.522 274.419C114.023 273.756 114.136 274.115 114.13 273.317C115.28 273.074 115.463 273.012 116.498 272.458C120.787 273.926 132.138 273.546 136.648 272.258C139.824 271.351 142.586 270.112 145.548 268.782Z"></path><path fill="#FCD87B" d="M153.176 262.096C168.511 265.804 163.064 281.799 155.854 290.483C155.086 289.135 156.146 289.888 155.475 288.032C158.794 282.74 161.076 276.975 160.107 270.532C159.514 266.587 156.239 264.227 153.176 262.096Z"></path><path fill="#FCD87B" d="M111.974 288.823C114.139 288.923 114.68 289.735 115.862 291.487C116.129 296.943 114.523 301.62 113.47 306.851C113.248 307.958 111.999 313.248 111.997 313.945C111.334 314.417 111.111 315.446 109.992 315.915C108.476 315.304 109.883 312.694 110.167 311.453C110.97 307.945 111.844 304.111 112.485 300.602C113.342 295.908 114.1 293.306 111.974 288.823Z"></path><path fill="#FC4D83" d="M113.845 272.864C115.323 270.519 121.508 268.311 124.292 267.084C131.275 264.006 139.308 265.01 146.248 267.881L145.441 268.62C136.884 264.947 124.07 267.436 116.498 272.458C115.463 273.012 115.28 273.074 114.13 273.317L113.845 272.864Z"></path><path fill="#FD939D" d="M116.795 329.187C117.499 329.356 119.04 329.495 119.506 329.783C119.202 331.063 112.271 335.291 112.072 337.392C113.53 337.625 113.837 336.851 114.491 337.444C113.246 340.105 109.587 341.771 107.661 344.104C107.289 344.862 107.198 344.682 106.171 345.127C106.086 344.398 105.967 343.78 105.831 343.064C106.28 342.287 106.408 342.251 107.137 341.773C107.705 341.434 107.854 341.267 108.35 340.839C108.627 339.88 108.582 340.253 108.283 339.201C109.803 337.581 111.226 337.843 110.639 335.535C111.426 334.49 115.141 331.216 116.795 329.187Z"></path><path fill="#FC4D83" d="M105.831 343.064C106.28 342.287 106.408 342.251 107.137 341.773C107.502 342.715 107.517 343.086 107.661 344.104C107.289 344.862 107.198 344.682 106.171 345.127C106.086 344.398 105.967 343.78 105.831 343.064Z"></path><path fill="#FCD87B" d="M155.475 288.032C156.146 289.888 155.086 289.135 155.854 290.483C155.306 291.326 155.049 291.406 155.024 292.246C155.525 292.731 155.582 292.78 156.168 293.155C155.381 295.375 150.328 293.489 148.857 300.864C146.888 302.752 143.704 304.806 142.454 307.028C141.955 305.867 142.278 306.266 141.211 305.537C141.831 304.386 145.724 301.372 146.929 300.106C146.863 299.624 146.818 299.334 146.693 298.869L146.589 298.49C147.527 297.242 150.463 294.864 151.761 293.995L152.703 291.296C153.268 290.66 153.387 290.398 153.789 289.673L155.475 288.032Z"></path><path fill="#FCD87B" d="M91.3507 361.056C91.6671 356.661 91.9276 357.593 95.255 355.093C96.4731 354.178 97.2209 349.976 98.8979 349.161C99.2848 348.973 99.6562 348.567 99.9116 348.242C99.4309 347.225 99.5629 348.42 98.183 347.412C98.0453 346.238 97.8179 344.699 98.3456 343.645L98.8114 343.575C99.4654 344.635 99.6522 345.097 100.797 345.628C100.794 345.785 100.791 345.942 100.789 346.1C100.698 347.012 101.404 347.973 101.213 348.835C101.212 348.84 100.469 349.803 100.383 349.951C99.0252 354.359 97.9132 354.167 94.8432 357.392C94.2719 357.992 93.8312 360.427 93.2002 360.953C92.8518 361.244 92.2187 360.973 91.5692 361.345L91.3507 361.056Z"></path><path fill="#FDE4D9" d="M131.47 312.952C133.494 313.211 133.701 311.545 134.816 311.881C134.749 312.75 134.596 312.866 134.1 313.568L134.897 314.509C134.342 315.904 132.865 317.742 131.571 318.468L131.027 318.465C130.703 317.864 130.825 317.466 130.894 316.779C130.29 317.387 129.024 318.862 128.306 318.986L128.111 318.787L127.219 317.525C128.447 316.162 129.688 314.812 130.944 313.476L131.47 312.952Z"></path><path fill="#FCD87B" d="M130.894 316.779C131.936 315.688 131.548 314.941 132.501 313.945C133.257 313.936 133.444 314.002 134.1 313.568L134.897 314.509C134.342 315.904 132.865 317.742 131.571 318.468L131.027 318.465C130.703 317.864 130.825 317.466 130.894 316.779Z"></path><path fill="#FC6893" d="M130.944 313.476C131.074 316.171 128.543 316.088 128.111 318.787L127.219 317.525C128.447 316.162 129.688 314.812 130.944 313.476Z"></path><path fill="#FD939D" d="M103.299 342.731C104.529 342.701 104.872 343.016 105.831 343.064C105.967 343.78 106.086 344.398 106.171 345.127C105.909 345.847 105.651 346.356 104.943 346.793C103.364 348.201 102.391 349.185 100.383 349.951C100.469 349.803 101.212 348.84 101.213 348.835C101.404 347.973 100.698 347.012 100.789 346.1C100.791 345.942 100.794 345.785 100.797 345.628C100.685 344.725 100.507 344.162 100.892 343.352C101.799 342.84 101.939 343.03 103.147 343.014L103.299 342.731Z"></path><path fill="#FC6893" d="M103.299 342.731C104.529 342.701 104.872 343.016 105.831 343.064C105.967 343.78 106.086 344.398 106.171 345.127C105.909 345.847 105.651 346.356 104.943 346.793C103.604 345.384 103.576 344.872 103.147 343.014L103.299 342.731Z"></path><path fill="#FD939D" d="M125.843 321.554L127.057 321.317C127.003 322.551 126.997 322.384 126.165 323.481C125.979 325.941 124.168 325.996 122.106 325.612C121.656 325.141 121.685 325.168 121.437 324.562C122.522 323.728 123.63 323.359 124.558 322.354L124.474 321.709L125.843 321.554Z"></path><path fill="#FD978A" d="M125.843 321.554L127.057 321.317C127.003 322.551 126.997 322.384 126.165 323.481C126.116 323.963 126.094 323.896 125.903 324.361C125.2 324.397 125.186 324.451 124.548 324.194C124.813 322.633 125.819 323.398 125.843 321.554Z"></path><path fill="#FDDDB3" d="M103.487 339.936C104.57 339.206 104.604 338.991 105.968 339.073L105.568 340.289C105.882 341.113 105.606 340.867 106.252 341.215C107.076 340.82 106.911 339.95 108.283 339.201C108.582 340.253 108.627 339.88 108.35 340.839C107.854 341.267 107.705 341.434 107.137 341.773C106.408 342.251 106.28 342.287 105.831 343.064C104.872 343.016 104.529 342.701 103.299 342.731C103.269 342.57 103.241 342.409 103.215 342.248C103.016 341.047 102.897 340.768 103.487 339.936Z"></path><path fill="#FBD2B2" d="M103.487 339.936C104.57 339.206 104.604 338.991 105.968 339.073L105.568 340.289C105.219 341.293 105.525 340.957 104.816 341.491C104.134 341.14 104.159 340.566 103.487 339.936Z"></path><path fill="#FCD87B" d="M84.1696 366.181C85.6415 364.686 88.1605 362.487 89.8028 361.06C90.2661 360.657 90.831 360.913 91.3507 361.056L91.5692 361.345C90.4378 362.847 86.9916 365.995 85.2445 366.605C84.6485 366.491 84.6841 366.504 84.1696 366.181Z"></path><path fill="#FD978A" d="M136.594 310.361C137.034 311.09 137.107 311.053 137.857 311.421C137.133 312.837 136.195 313.603 134.897 314.509L134.1 313.568C134.596 312.866 134.749 312.75 134.816 311.881C133.701 311.545 133.494 313.211 131.47 312.952C133.317 310.198 133.369 311.486 136.309 310.462L136.594 310.361Z"></path><path fill="#FDC47C" d="M110.639 335.535C111.226 337.843 109.803 337.581 108.283 339.201C106.911 339.95 107.076 340.82 106.252 341.215C105.606 340.867 105.882 341.113 105.568 340.289L105.968 339.073C107.067 337.925 108.369 337.951 110.639 335.535Z"></path><path fill="#FCD87B" d="M141.211 305.537C142.278 306.266 141.955 305.867 142.454 307.028C141.886 308.125 141.734 308.582 140.817 309.43C139.559 309.189 139.575 309.29 139.071 308.211C139.727 307.261 140.468 306.42 141.211 305.537Z"></path><path fill="#FDC47C" d="M139.071 308.211C139.575 309.29 139.559 309.189 140.817 309.43C139.938 310.008 138.654 310.794 137.857 311.421C137.107 311.053 137.034 311.09 136.594 310.361C137.053 309.737 138.411 308.743 139.071 308.211Z"></path><path fill="#F85690" d="M124.474 321.709L124.34 321.007C124.854 319.996 125.655 319.455 126.531 318.704C126.515 320.495 125.774 319.148 126.197 320.621L127.057 321.317L125.843 321.554L124.474 321.709Z"></path><path fill="#FDDDB3" d="M152.703 291.296C152.226 290.868 152.148 290.851 151.834 290.307C151.896 289.37 151.703 289.719 152.292 289.156C153.203 289.146 152.899 289.131 153.789 289.673C153.387 290.398 153.268 290.66 152.703 291.296Z"></path><path fill="#FDD797" d="M144.432 296.478C145.216 295.003 145.871 293.974 147.285 293.066L147.87 293.03L148.287 293.472C148.179 295.369 145.92 296.11 145.496 297.509C145.067 298.408 144.761 299.001 143.698 299.228L143.427 298.886C143.466 297.725 143.789 297.562 144.432 296.478Z"></path><path fill="#FCD87B" d="M144.432 296.478C145.015 296.937 145.069 296.904 145.496 297.509C145.067 298.408 144.761 299.001 143.698 299.228L143.427 298.886C143.466 297.725 143.789 297.562 144.432 296.478Z"></path><path fill="#FDD797" d="M93.9897 349.977C94.4721 348.827 94.865 347.82 95.4849 346.731L95.9401 346.605C97.3168 348.254 95.294 349.709 95.1805 351.667C94.7765 352.262 94.8283 352.27 94.1874 352.568L93.8005 352.369C93.5107 351.287 93.6531 351.105 93.9897 349.977Z"></path><path fill="#FCD87B" d="M93.9897 349.977C95.176 350.351 95.0131 350.412 95.1805 351.667C94.7765 352.262 94.8283 352.27 94.1874 352.568L93.8005 352.369C93.5107 351.287 93.6531 351.105 93.9897 349.977Z"></path><path fill="#FBBEBD" d="M136.151 306.929L136.467 307.379C136.301 308.173 135.553 309.095 135.071 309.797L134.756 309.251C134.915 308.297 135.531 307.714 136.151 306.929Z"></path><path fill="#FDE4D9" d="M349.306 126.133C355.951 126.4 363.181 126.186 369.93 126.289C374.664 132.21 382.391 147.239 385.496 154.361L386.332 154.771C386.471 152.176 386.326 148.284 386.322 145.589L386.269 126.195C388.817 126.298 403.145 125.973 404.5 126.413L404.881 127.498L405.346 127.669C406.029 128.153 406.499 128.261 406.525 129.006C406.585 130.737 406.59 132.593 406.584 134.311L406.543 145.606L406.576 184.849C401.064 184.638 395.515 184.933 390.001 184.858C388.017 184.831 386.363 185.012 384.954 183.464C382.453 181.282 371.777 160.122 369.623 156.04L369.233 156.639C369.775 158.903 369.502 163.667 369.545 166.165C369.647 172.197 369.293 178.748 369.511 184.752C367.067 184.771 352.572 185.166 351.176 184.308C350.966 183.687 350.924 183.534 350.816 182.889C350.203 182.884 350.063 182.889 349.466 182.776C348.964 181.688 349.233 131.593 349.306 126.133Z"></path><path fill="#C5E3EB" d="M405.346 127.669C406.029 128.153 406.499 128.261 406.525 129.006C406.585 130.737 406.59 132.593 406.584 134.311L406.543 145.606L406.576 184.849C401.064 184.638 395.515 184.933 390.001 184.858C388.017 184.831 386.363 185.012 384.954 183.464C387.083 182.45 401.811 182.96 404.958 182.979C404.455 174.908 404.907 162.891 404.922 154.489L404.931 137.422C404.932 135.7 404.684 128.832 405.346 127.669Z"></path><path fill="#C5E3EB" d="M367.698 153.64C368.172 155.444 368.675 154.914 369.233 156.639C369.775 158.903 369.502 163.667 369.545 166.165C369.647 172.197 369.293 178.748 369.511 184.752C367.067 184.771 352.572 185.166 351.176 184.308C350.966 183.687 350.924 183.534 350.816 182.889C356.463 182.968 362.103 182.909 367.752 183.005C367.684 173.2 367.879 163.479 367.698 153.64Z"></path><path fill="#D5E1E2" d="M366.5 148.914C367.597 151.168 368.651 153.714 369.623 156.04L369.233 156.639C368.675 154.914 368.172 155.444 367.698 153.64C367.222 152.896 366.693 149.918 366.5 148.914Z"></path><path fill="#ADACB4" d="M385.496 154.361L386.332 154.771C386.544 155.527 386.784 158.477 386.878 159.424L385.496 154.361Z"></path><path fill="#FDE4D9" d="M334.531 191.238C341.755 191.493 403.589 190.86 404.495 191.617L404.547 192.795C405.116 193.004 405.74 193.086 405.879 193.638C407.006 198.098 405.586 210.363 406.389 214.04C405.819 214.685 405.619 214.769 404.666 214.723C398.696 214.428 391.789 215.145 385.931 214.619C385.583 214.691 384.926 214.723 384.925 214.971C384.873 229.214 385.112 243.567 384.868 257.838C384.748 257.897 384.627 257.955 384.506 258.014C383.818 257.534 383.801 257.499 383.27 256.907C381.15 255.913 377.514 255.476 375.176 255.135C368.91 254.221 360.878 255.818 356.28 260.439C356.482 245.299 356.28 229.841 356.313 214.668C350.556 214.664 342.937 215.04 337.127 214.494C336.38 214.424 336.174 213.738 335.905 213.177L334.973 212.862C333.998 211.536 334.52 194.433 334.531 191.238Z"></path><path fill="#65C0AC" d="M383.27 256.907C382.942 248.187 383.447 238.293 383.254 229.41C383.188 226.382 383.043 215.757 383.359 213.405C384.154 212.845 384.133 213.036 385.302 212.985C384.337 213.365 384.322 213.203 383.751 213.895C384.447 214.519 384.655 214.445 385.714 214.455L385.931 214.619C385.583 214.691 384.926 214.723 384.925 214.971C384.873 229.214 385.112 243.567 384.868 257.838C384.748 257.897 384.627 257.955 384.506 258.014C383.818 257.534 383.801 257.499 383.27 256.907Z"></path><path fill="#6BBBAE" d="M404.31 213.134C405.857 213.615 405.543 212.308 406.389 214.04C405.819 214.685 405.619 214.769 404.666 214.723C398.696 214.428 391.789 215.145 385.931 214.619L385.714 214.455C384.655 214.445 384.447 214.519 383.751 213.895C384.322 213.203 384.337 213.365 385.302 212.985C389.397 213.062 393.493 213.075 397.588 213.025C399.285 213.016 402.762 212.921 404.31 213.134Z"></path><path fill="#6BBBAE" d="M404.547 192.795C405.116 193.004 405.74 193.086 405.879 193.638C407.006 198.098 405.586 210.363 406.389 214.04C405.543 212.308 405.857 213.615 404.31 213.134C404.818 211.832 404.474 195.65 404.547 192.795Z"></path><path fill="#6BBBAE" d="M335.905 213.177C338.592 213.023 354.134 212.618 356.124 213.136C356.353 213.902 356.342 213.865 356.313 214.668C350.556 214.664 342.937 215.04 337.127 214.494C336.38 214.424 336.174 213.738 335.905 213.177Z"></path><path fill="#FDE4D9" d="M265.79 259.017C271.918 260.017 271.602 259.65 277.124 263.266C281.612 266.18 283.494 267.581 284.855 273.221C287.42 283.853 282.299 294.392 277.338 303.522C276.226 305.569 274.26 306.709 272.256 307.644C270.385 308.523 270.354 308.542 268.45 307.726C261.193 306.318 264.686 300.773 266.786 296.578C269.07 292.015 271.021 287.08 272.827 282.303C274.128 278.861 275.187 275.538 272.606 272.392C267.22 276.525 260.801 282.592 256.529 287.859C254.783 290.013 253.364 292.981 251.789 295.094C251.813 301.503 250.981 302.633 254.556 308.109C256.555 311.418 258.919 314.098 260.75 317.141C261.125 318.042 261.375 318.99 262.375 319.317C264.428 319.563 268.654 324.713 270.214 326.442C277.89 333.639 285.085 352.114 272.314 358.299C269.137 359.89 266.469 359.217 263.578 360.822C257.98 362.486 254.799 365.465 250.113 367.738C245.56 369.948 244.937 369.117 240.113 372.547C238.556 373.611 231.818 378.758 230.796 379.153C230.243 378.272 231.022 378.332 230.255 377.481L229.957 377.529C228.998 378.318 227.039 379.271 225.779 380.049C224.314 380.953 222.489 382.644 221.304 383.267C220.159 382.674 220.41 382.497 220.277 381.298L219.305 381.79L217.957 382.324L217.186 381.94C224.03 374.682 234.35 366.467 242.297 360.298C247.545 356.224 255.127 352.139 260.09 347.552C261.106 346.614 261.346 344.253 261.317 342.905C261.378 335.058 256.917 331.13 252.202 325.538C245.547 317.646 238.553 308.915 237.911 298.176L237.687 297.91C237.66 297.038 237.721 296.584 237.323 295.804C237.541 293.706 237.858 290.871 238.417 288.839C238.919 289.176 239.121 289.04 239.722 289.294C243.236 279.066 251.287 272.17 259.021 265.216C261.479 263.006 262.674 260.717 265.79 259.017Z"></path><path fill="#FCD87B" d="M253.578 309.325C242.631 296.234 254.67 285.327 264.404 276.611C266.546 274.693 269.64 270.563 272.606 272.392C267.22 276.525 260.801 282.592 256.529 287.859C254.783 290.013 253.364 292.981 251.789 295.094C251.813 301.503 250.981 302.633 254.556 308.109C256.555 311.418 258.919 314.098 260.75 317.141C257.912 316.29 255.318 311.812 253.578 309.325Z"></path><path fill="#FCD87B" d="M277.124 263.266C281.612 266.18 283.494 267.581 284.855 273.221C287.42 283.853 282.299 294.392 277.338 303.522C276.226 305.569 274.26 306.709 272.256 307.644C271.935 306.603 272.207 307.029 271.442 306.296C271.945 305.952 272.438 305.593 272.92 305.22C274.626 303.882 275.663 301.288 276.659 299.414C279.796 293.506 282.019 287.974 282.953 281.295C283.275 278.999 283.082 277.652 282.998 275.462C282.776 269.686 280.556 267.588 277.124 263.266Z"></path><path fill="#FCD87B" d="M270.214 326.442C277.89 333.639 285.085 352.114 272.314 358.299L271.048 357.105C275.793 353.133 277.223 351.301 276.933 344.765C276.681 339.067 273.482 333.217 270.779 328.302C270.564 327.912 269.187 326.685 268.802 326.334L270.214 326.442Z"></path><path fill="#FCD87B" d="M238.702 371.28C242.613 368.636 244.545 368.537 248.296 366.622C253.14 364.15 256.347 361.466 261.973 359.808C262.304 360.778 262.489 360.682 263.578 360.822C257.98 362.486 254.799 365.465 250.113 367.738C245.56 369.948 244.937 369.117 240.113 372.547C239.544 372.22 239.178 371.76 238.702 371.28Z"></path><path fill="#FDD797" d="M220.277 381.298C221.375 379.795 225.306 376.992 227.239 376.777C228.702 376.615 228.773 376.679 229.957 377.529C228.998 378.318 227.039 379.271 225.779 380.049C224.314 380.953 222.489 382.644 221.304 383.267C220.159 382.674 220.41 382.497 220.277 381.298Z"></path><path fill="#FCD87B" d="M230.255 377.481C233.49 374.656 234.998 373.334 238.702 371.28C239.178 371.76 239.544 372.22 240.113 372.547C238.556 373.611 231.818 378.758 230.796 379.153C230.243 378.272 231.022 378.332 230.255 377.481Z"></path><path fill="#FADC6B" d="M271.048 357.105L272.314 358.299C269.137 359.89 266.469 359.217 263.578 360.822C262.489 360.682 262.304 360.778 261.973 359.808C265.045 358.814 267.801 358.396 271.048 357.105Z"></path><path fill="#FADC6B" d="M262.375 319.317C264.428 319.563 268.654 324.713 270.214 326.442L268.802 326.334C266.357 323.895 264.596 321.941 262.375 319.317Z"></path><path fill="#FC6893" d="M238.417 288.839C238.919 289.176 239.121 289.04 239.722 289.294C238.35 293.512 238.155 293.813 237.911 298.176L237.687 297.91C237.66 297.038 237.721 296.584 237.323 295.804C237.541 293.706 237.858 290.871 238.417 288.839Z"></path><path fill="#FCD87B" d="M268.45 307.726C269.183 307.218 270.579 306.671 271.442 306.296C272.207 307.029 271.935 306.603 272.256 307.644C270.385 308.523 270.354 308.542 268.45 307.726Z"></path><path fill="#FDE4D9" d="M288.838 182.734C288.392 182.662 287.528 182.73 286.9 182.689L286.685 182.346C287.524 178.977 289.913 173.042 291.2 169.548L301.499 141.374C302.965 137.349 305.926 129.873 306.86 126.102C311.4 126.435 320.746 126.311 325.449 126.229C328.901 130.825 330.124 135.1 331.904 140.505C334.753 147.534 337.073 154.893 339.772 161.993C341.401 166.278 343.08 170.655 344.397 175.038L345.359 177.672C346.265 179.992 347.176 182.439 348.166 184.714C344.864 184.763 330.854 185.585 329.132 184.045C328.902 183.84 328.687 183.567 328.496 183.323C326.803 181.858 326.248 179.118 325.736 176.996C322.865 177.303 312.419 177.249 309.631 176.947L306.964 184.668C303.272 184.826 292.057 185.028 288.68 184.67L288.358 184.255C288.511 183.514 288.541 183.432 288.838 182.734Z"></path><path fill="#C5E3EB" d="M307.429 175.868C310.852 174.814 320.459 175.005 324.276 175.743C325.233 175.927 325.322 176.318 325.736 176.996C322.865 177.303 312.419 177.249 309.631 176.947L306.964 184.668C303.272 184.826 292.057 185.028 288.68 184.67L288.358 184.255C288.511 183.514 288.541 183.432 288.838 182.734C290.51 183.219 302.552 182.963 305.178 182.978C305.86 180.485 306.779 178.589 307.429 175.868Z"></path><path fill="#C5E3EB" d="M346.703 182.655C345.85 180.785 345.077 179.674 345.359 177.672C346.265 179.992 347.176 182.439 348.166 184.714C344.864 184.763 330.854 185.585 329.132 184.045C328.902 183.84 328.687 183.567 328.496 183.323C329.615 182.759 344.102 182.823 346.703 182.655Z"></path><path fill="#D5E1E2" d="M331.904 140.505C334.753 147.534 337.073 154.893 339.772 161.993C341.401 166.278 343.08 170.655 344.397 175.038C343.892 175.135 344.148 175.117 343.575 174.883C341.695 171.374 331.809 143.3 331.904 140.505Z"></path><path fill="#F85690" d="M313.781 161.73C313.43 162.174 313.563 161.977 312.747 162.141L312.294 161.835C312.06 159.701 315.226 145.503 316.465 144.302C317.266 144.919 317.372 146.899 317.476 147.899C318.386 150.383 320.916 159.709 321.376 162.362C319.448 162.304 315.813 162.398 314.161 162.149L313.781 161.73Z"></path><path fill="#C5E3EB" d="M313.781 161.73C313.43 162.174 313.563 161.977 312.747 162.141L312.294 161.835C312.06 159.701 315.226 145.503 316.465 144.302C317.266 144.919 317.372 146.899 317.476 147.899C316.159 151.405 315.044 157.691 313.781 161.73Z"></path><path fill="#FDE4D9" d="M174.842 126.207C181.068 126.185 187.294 126.209 193.519 126.28L195.384 129.036C198.205 135.082 200.688 142.801 202.994 149.169L214.417 180.466C215.018 181.952 215.634 183.559 216.274 185.017C210.943 184.285 203.575 185.455 198.131 184.477C197.55 184.373 196.878 183.809 196.485 183.37C194.675 181.403 194.031 179.619 193.729 176.954C188.184 177.327 182.764 176.976 177.279 177.161C176.573 179.562 175.557 182.437 175.388 184.88C172.661 184.73 157.767 185.043 156.688 184.422C156.591 183.896 156.559 183.81 156.582 183.281L156.188 182.895C155.494 182.838 155.328 182.862 154.665 182.619C154.406 181.493 172.772 132.883 174.842 126.207Z"></path><path fill="#C5E3EB" d="M173.037 182.877C174.043 180.386 174.227 177.493 175.992 175.651C177.509 174.972 190.316 174.986 192.607 175.633C193.421 175.863 193.448 176.294 193.729 176.954C188.184 177.327 182.764 176.976 177.279 177.161C176.573 179.562 175.557 182.437 175.388 184.88C172.661 184.73 157.767 185.043 156.688 184.422C156.591 183.896 156.559 183.81 156.582 183.281C157.949 182.898 170.989 182.838 173.037 182.877Z"></path><path fill="#D5E1E2" d="M195.384 129.036C198.205 135.082 200.688 142.801 202.994 149.169L214.417 180.466L214.258 182.48C210.395 172.699 207.382 163.456 203.788 153.648L197.956 137.3C197.113 134.977 195.244 131.4 195.384 129.036Z"></path><path fill="#C5E3EB" d="M214.417 180.466C215.018 181.952 215.634 183.559 216.274 185.017C210.943 184.285 203.575 185.455 198.131 184.477C197.55 184.373 196.878 183.809 196.485 183.37C196.804 183.146 197.219 182.861 197.628 182.848C199.083 182.804 200.54 182.824 201.995 182.82C205.827 182.811 209.663 182.744 213.492 182.947C213.747 182.791 214.002 182.635 214.258 182.48L214.417 180.466Z"></path><path fill="#F85690" d="M181.715 162.252C180.603 162.302 180.641 162.488 179.892 162.002C179.748 161.188 180.309 158.269 180.624 157.583C181.483 155.711 183.375 144.778 184.383 143.952L184.782 144.103C185.304 145.132 185.306 146.563 185.41 147.759C186.629 151.848 188.532 158.435 189.201 162.524C186.415 162.166 184.112 162.493 181.715 162.252Z"></path><path fill="#C5E3EB" d="M181.715 162.252C180.603 162.302 180.641 162.488 179.892 162.002C179.748 161.188 180.309 158.269 180.624 157.583C181.483 155.711 183.375 144.778 184.383 143.952L184.782 144.103C185.304 145.132 185.306 146.563 185.41 147.759C184.419 150.685 182.283 159.298 181.715 162.252Z"></path><path fill="#FC6893" d="M220.277 381.298C220.41 382.497 220.159 382.674 221.304 383.267C220 383.477 218.641 385.078 217.26 385.977C215.37 388.339 212.721 389.573 209.762 389.685C208.436 391.159 204.404 393.415 202.595 394.392C205.19 391.512 206.525 391.569 208.911 389.454C211.567 387.101 214.445 384.333 217.186 381.94L217.957 382.324L219.305 381.79L220.277 381.298Z"></path><path fill="#FD939D" d="M202.595 394.392C205.19 391.512 206.525 391.569 208.911 389.454C211.567 387.101 214.445 384.333 217.186 381.94L217.957 382.324C216.644 383.814 211.633 388.012 209.913 389.138L209.762 389.685C208.436 391.159 204.404 393.415 202.595 394.392Z"></path><path fill="#FD978A" d="M220.277 381.298C220.41 382.497 220.159 382.674 221.304 383.267C220 383.477 218.641 385.078 217.26 385.977C216.723 385.895 216.973 386.007 216.533 385.598C216.974 384.095 219.235 383.932 219.305 381.79L220.277 381.298Z"></path><path fill="#FC6893" d="M217.653 343.73C219.682 343.122 221.351 343.035 223.41 343.464L222.25 343.635L222.122 344.011L222.682 345.1C223.646 345.415 223.558 345.208 223.928 345.868C223.289 347.147 220.852 347.846 219.503 347.898L219.105 347.613C219.157 347.275 219.154 347.106 219.277 346.793L219.454 346.005L219.68 345.176C219.341 344.303 218.749 344.306 217.653 343.73Z"></path><path fill="#FD939D" d="M222.682 345.1C223.646 345.415 223.558 345.208 223.928 345.868C223.289 347.147 220.852 347.846 219.503 347.898L219.105 347.613C219.157 347.275 219.154 347.106 219.277 346.793C220.538 346.341 221.711 346.029 222.682 345.1Z"></path><path fill="#FBBEBD" d="M216.769 343.933C217.064 343.769 217.285 343.786 217.653 343.73C218.749 344.306 219.341 344.303 219.68 345.176L219.454 346.005C218.723 346.092 218.746 346.09 218.019 345.961L217.671 345.276L217.442 345.216C217.229 346.394 216.42 347.385 215.246 347.659C214.426 347.011 214.661 347.409 214.404 346.499C214.782 345.591 216.014 344.997 216.769 343.933Z"></path><path fill="#FDC47C" d="M290.988 362.032C291.327 362.722 291.289 362.704 291.842 363.226C291.336 364.028 290.074 366.001 289.377 366.482L288.929 366.286C288.503 364.314 290.683 363.777 290.988 362.032Z"></path><path fill="#FFC8DF" d="M80.3293 361.286C80.4521 361.829 80.6354 362.492 80.6724 363.032C79.5891 363.395 79.0311 364.511 77.6144 365.086C77.5797 364.267 79.7 362.006 80.3293 361.286Z"></path><path fill="#FC4D83" d="M279.89 333.352C280.715 333.411 280.716 333.367 281.449 333.825C281.711 334.768 281.635 334.463 281.333 335.539C280.386 335.757 280.587 335.865 279.848 335.561C279.478 334.818 279.725 334.205 279.89 333.352Z"></path><path fill="#FD978A" d="M338.258 294.157C338.51 294.341 339.075 294.781 339.315 294.915C338.969 295.711 338.585 297.097 337.622 297.107C337.306 296.086 337.843 295.172 338.258 294.157Z"></path><path fill="#FFC8DF" d="M127.507 357.699C126.997 358.591 126.754 359.237 125.886 359.764L125.589 359.575C125.596 358.483 126.057 357.731 126.513 356.719L126.708 357.693C127.262 357.85 126.996 357.86 127.507 357.699Z"></path><path fill="#FC6893" d="M81.0146 120.873C81.6368 120.941 81.8223 121.018 82.4266 121.206L82.5759 121.649L82.0648 122.594C81.6602 122.462 81.2121 122.252 80.8149 122.082L80.6248 121.583L81.0146 120.873Z"></path><defs><linearGradient id="gradient_7" gradientUnits="userSpaceOnUse" x1="85.710228" y1="424.61209" x2="115.63808" y2="395.82431"><stop offset="0" stop-color="#0DFFC9" stop-opacity="0.98823529"></stop><stop offset="1" stop-color="#4FCFBC"></stop></linearGradient></defs><path fill="url(#gradient_7)" d="M24.3411 344.541C24.4781 343.613 24.5001 344.08 24.1196 343.104C28.7696 343.881 50.1665 370.404 58.4151 367.982L58.5597 368.44C58.7366 368.384 59.0191 368.311 59.169 368.227L59.4202 368.488C60.5742 369.707 64.084 374.704 65.4299 376.424C69.5151 381.616 73.8284 386.625 78.357 391.435C108.388 423.587 147.338 446.037 190.212 455.908C187.717 457.073 169.71 450.007 168.35 450.409C168.155 450.466 168.044 450.675 167.891 450.808C166.197 456.5 182.067 466.488 183.593 472.338C183.748 472.932 192.476 473.769 193.567 475.046C190.617 474.579 187.611 473.858 184.688 473.209C181.227 472.048 175.32 470.822 171.334 469.621C119.96 454.243 75.2144 422.107 44.2332 378.335C36.8481 367.913 31.8457 359.14 25.8851 348.022C25.7929 347.725 24.5944 345.18 24.3411 344.541Z"></path></svg>